<svg version="1" xmlns="http://www.w3.org/2000/svg" width="1578.667" height="1578.667" viewBox="0 0 1184.000000 1184.000000"><path d="M68.5 112.7c-1.1.2-4.7 1.1-8 2-3.3.8-6.6 1.5-7.2 1.6-.7 0-1.3.4-1.3.9 0 .4-.9.8-2 .8s-2 .5-2 1.2c0 .6-.3.8-.7.5-1.3-1.4-16.9 9-23.8 15.8-6.8 6.9-17.2 22.5-15.8 23.8.3.4.1.7-.5.7-.7 0-1.2.8-1.2 1.8s-.3 2.2-.8 2.6c-.4.4-.7 1.1-.8 1.4 0 .4-.4 1.4-.7 2.2-.3.8-1.3 4.9-2.1 9C.2 183.6 0 229.6.1 579.5c0 413.6-.1 402.5 3.8 411 .5 1.1 1.5 3.8 2.2 6 .7 2.2 1.8 4.7 2.5 5.5 2.2 2.9 2.5 5.3.9 7-1.4 1.6-.1 3.1 17.1 20.4 10.2 10.2 18.9 18.6 19.4 18.6.4 0 2.1-1.5 3.7-3.3l2.9-3.3 5.9 1.8c3.3.9 8.9 2 12.5 2.4 10.8 1.1 1035.8.7 1041.5-.5 2.8-.5 7-1.5 9.5-2.1 5.5-1.4 23-9.8 23-11.1 0-.5.4-.9 1-.9 1.1 0 4.1-2.5 10.1-8.3 8.8-8.4 17.3-22.6 20.6-34.2 1.8-6.3 2.1-8.2 2.9-18 .6-7.6.7-10.4.4-15-.1-2.5-.1-15.3 0-18 .2-2.7.2-3.1 0-9.7-.1-3.1.1-6.1.4-6.7.4-.5.2-1.2-.3-1.5-.5-.4-.6-1.8-.2-3.3.4-1.5.4-4.7.1-7-.4-2.4-.3-4.6.2-4.9.5-.3.5-1.1-.1-1.8s-.6-1.8-.1-2.6c.4-.7.5-2.3.1-3.4-.4-1.2-.5-3.2-.1-4.6.3-1.4.3-4.4 0-6.8-.4-2.3-.3-4.5.2-4.8.5-.3.5-1.1-.1-1.8s-.6-1.8-.1-2.5c.4-.8.5-2.4 0-3.5-.4-1.1-.4-3.2-.1-4.6.4-1.4.6-3.4.5-4.5-.5-3.5-.7-16.4-.4-22 .2-2.7.2-3.1 0-9.7-.1-3.1.1-6.1.4-6.7.4-.5.2-1.2-.3-1.5-.5-.4-.6-1.8-.2-3.3.4-1.5.4-4.7.1-7-.4-2.4-.3-4.6.2-4.9.5-.3.5-1.1-.1-1.8s-.6-1.8-.1-2.6c.4-.7.5-2.3.1-3.4-.4-1.2-.5-3.2-.1-4.6.3-1.4.3-4.4 0-6.8-.4-2.3-.3-4.5.2-4.8.5-.3.5-1.1-.1-1.8s-.6-1.8-.1-2.5c.4-.8.5-2.4 0-3.5-.4-1.1-.4-3.3 0-4.7.4-1.5.4-3.2 0-3.9-.4-.6-.4-2.7 0-4.6.4-1.9.4-3.6 0-3.9-.5-.3-.5-1.7-.1-3.2.4-1.5.4-4.7.1-7-.4-2.4-.3-4.6.2-4.9.5-.3.5-1.1-.1-1.8s-.6-1.8-.1-2.6c.4-.7.5-2.3.1-3.4-.4-1.2-.5-3.2-.1-4.6.3-1.4.3-4.4 0-6.8-.4-2.3-.3-4.5.2-4.8.5-.3.5-1.1-.1-1.8s-.6-1.8-.1-2.6c.4-.7.4-2.3 0-3.6-.5-1.2-.7-2.4-.5-2.6.8-.8 1.2-7.7.5-8.8-.4-.7-.4-2.7 0-4.6.6-2.7.5-3.6-.9-4.2-1.2-.6-43.8-.8-51.1-.3-1.4.1-1.6 14.2-1.5 137.8 0 75.8-.3 139.4-.8 141.3-2.5 10.6-10.7 19.1-20.2 20.8-3.6.6-1002.5.7-1002.5.1 0-1 5.2-5.9 6.2-5.9.5 0 .6-.5.3-1-.3-.6-.2-1 .3-1 .4 0 1.7-.9 2.8-1.9 1-1.1 44.8-44.9 97.2-97.4 52.4-52.4 95.4-95.1 95.7-94.9.3.3.5.1.5-.5 0-1.3 47.7-48.9 48.7-48.6.5.2 21.3 20.8 46.4 45.8l45.5 45.6 128-128 127.9-128 82.1 82.1 82.1 82 10.4-10.7c17.3-17.8 21.6-22.3 42.9-44.4 11.3-11.8 25.3-26.3 31.3-32.4 5.9-6.1 10.7-11.2 10.7-11.3 0-.1 4.2-4.5 9.3-9.7 5-5.1 17.1-17.6 26.7-27.6 9.6-10.1 21.3-22.2 26-27 4.7-4.9 16.4-17 26-27 9.6-10.1 21.6-22.4 26.5-27.6 22.2-23 44-45.7 44.5-46.3.3-.4 1.6-1.7 3-2.9l2.5-2.2-.1 59c0 40.9.3 58.9 1 59 .6 0 12.7.1 26.8.2 25.1.2 25.7.2 25.8-1.8 0-8.4-.1-11.8-.5-12.5-.3-.5-.1-1.1.4-1.4.5-.3.6-2.1.1-3.9-.4-1.8-.4-4.2 0-5.2.3-1.1.5-3.1.3-4.5s-.3-4.1-.2-6v-5.8c-.2-3.8-.2-6.6-.1-10.7.3-13.8.2-14.6-.3-17-.2-1.1-.1-2.9.3-4s.4-3-.1-4.2c-.4-1.2-.4-2.5 0-2.8.5-.3.6-2 .1-3.8-.4-1.8-.4-4.2 0-5.2.3-1.1.5-3.1.3-4.5s-.3-4.1-.2-6v-5.8c-.2-3.8-.2-6.6-.1-10.7.2-8.8.2-11.1.1-13.3-.2-3.7-.2-6.5-.1-11.2v-6c-.1-2.9-.1-15.5 0-17.5.2-2.7.2-3.2 0-9.7-.1-3.1.1-6.1.4-6.7.4-.5.2-1.2-.3-1.6-.6-.3-.7-1.5-.3-2.8.5-1.2.7-3.3.5-4.7-.2-1.4-.3-4.1-.2-6v-6c0-1.4-.1-4.1-.1-6.1l.1-3.7H969l-.1 4.1c-.2 22.9 0 47.7.5 48.5.3.6 4.8.9 10.2.9 5.3-.1 9.8.1 10.1.6.2.4.8.5 1.3.2 1.6-1 8.1-1.2 8.6-.3.3.5 1 .5 1.7.1 1.4-.9 35.8-1 36.3-.1.3.4 1.5.4 2.7 0 2.8-.9 5.8-.8 7.4.1.6.4 1.4.4 1.6 0 .4-.6 27.4-.9 38.1-.4 1.5.1 1 1-2.5 4.5-2.4 2.5-12.3 12.7-21.9 22.7-9.6 10-20.6 21.5-24.5 25.5-3.8 4-15.1 15.7-25 26s-21.1 22-25 25.9c-3.8 4-15.1 15.7-25 26S942.1 584.7 938 589c-4.1 4.3-15.6 16.2-25.5 26.5s-23.1 23.9-29.2 30.2c-6.2 6.4-11.3 11.9-11.4 12.2 0 .3-1.4 1.7-3 3l-3.1 2.4-81.1-81.1C740 537.5 703.1 501 702.6 501s-58.3 57.4-128.4 127.6L446.6 756.1l-45.3-45.3c-24.9-24.9-45.8-45.5-46.4-45.7-.6-.2-68.5 67-150.9 149.4S54.1 963.8 53.8 963.4c-.6-1.3-.1-774.5.5-777.1 2.3-9.4 10.4-17.4 20.2-20 3.4-.9 1026.8-.9 1030.5 0 11.2 2.7 19.2 11.1 20.7 21.9.5 2.9.8 25.2.8 49.5-.1 43.9-.1 44.3 2 44.4 10.9.3 13.2.2 14.3-.5.6-.4 1.2-.4 1.2.1 0 .4 7.7.7 17.2.7 15.2-.1 17.3-.3 18.4-1.9.8-1 1.1-2.2.8-2.6-.8-1.3-1.1-7.9-.4-7.9.4 0 .4-1.7 0-3.8-.3-2-.3-4.9.1-6.3.3-1.5.3-3.2-.1-3.9-.4-.7-.4-2.7 0-4.6.4-1.9.4-3.6 0-3.9-.5-.3-.5-1.7-.1-3.2.4-1.5.4-4.7.1-7-.4-2.4-.3-4.6.2-4.9.5-.3.5-1.1-.1-1.8s-.6-1.8-.1-2.6c.4-.7.5-2.3.1-3.4-.4-1.2-.5-3.2-.1-4.6.3-1.4.3-4.4 0-6.8-.4-2.3-.3-4.5.2-4.8.5-.3.5-1.1-.1-1.8s-.6-1.8-.1-2.6c.4-.7.4-2.3 0-3.6-.5-1.2-.6-2.4-.4-2.7.6-.6.6-7.6 0-13.2-1-8.3-1.3-10.1-2.4-12.1-.6-1.2-.9-2.4-.7-2.6.5-.5-1-4.6-4.3-11.8-2.4-5.3-9.6-16-13.9-20.6-6.8-7.4-23.2-18.4-29.8-20.1-.5-.1-4.1-1.3-8-2.5l-7-2.3-521.5-.1c-286.8-.1-522.4 0-523.5.3z"/><path d="M340.7 261.6c-.1.1-4 .4-8.7.8-4.7.3-9.5.8-10.6 1-1.2.3-3.9.7-6 1-2.2.4-5.7 1.2-7.9 1.8-2.2.6-4.7 1.2-5.5 1.3-.8.1-2.2.5-3 .8-.8.4-3.7 1.4-6.5 2.3-2.7.9-9.3 3.7-14.5 6.2-5.2 2.5-9.6 4.4-9.8 4.1-.2-.2-.8.4-1.3 1.3-.6 1-1.4 1.8-2 1.8-1.5 0-15.7 10.3-22.8 16.5-4.5 4-11.4 11.3-18.1 19.2-9.1 10.8-22.9 36.3-25.5 47.3-.1.3-.8 2.5-1.5 5s-1.4 4.8-1.6 5.2c-.1.5-.3 1-.4 1.3-.4.7-.5 1.5-1.4 6.8-.4 2.7-.9 5.8-1.2 7-2.3 12.2-2.2 35.5.2 47 .3 1.6.7 3.8.9 5 2.8 18.5 14.1 44.4 26.9 61.7 5.4 7.3 7.3 9.5 14.6 16.9 8.5 8.6 13 12.4 23.5 19.7 8 5.5 24.3 13.9 31 16l7.5 2.5c10.7 3.7 10.5 3.6 15.7 4.3 1.8.2 3.6.7 4.1 1 2.8 1.7 38.7 2.6 47.7 1.2 12.4-1.9 25.7-5.3 33.5-8.5 2.5-1.1 6.5-2.7 9-3.7s4.8-2.3 5.2-2.9c.4-.5.8-.7.8-.3 0 1.7 23.7-13.6 30.7-19.9 7.5-6.7 9.1-8.3 13.8-13.4 7.5-8.2 19.5-24.7 19.5-26.9 0-.5.6-1.5 1.3-2.2.7-.7 2.9-4.9 4.9-9.3 5.9-12.6 9.5-23.7 11.7-36 .6-3.3 1.4-7.1 1.7-8.5 1.2-5.6 1.1-33-.2-41.6-1.4-9-4.9-24.2-6.4-27.9-.4-1.1-1.4-3.6-2.1-5.5-3.2-9-13.6-28.7-18.2-34.5-1.7-2.2-4.8-6.2-6.9-8.8-3.4-4.3-16.9-17.8-20.8-20.9-3.1-2.3-9.4-7.2-12.5-9.5-3.7-2.8-28.2-15.3-30.8-15.7-.7-.1-1.6-.4-2.2-.8-.5-.3-3-1.2-5.5-1.9s-4.9-1.4-5.5-1.5c-.5-.2-3.2-.9-6-1.5-2.7-.6-5.3-1.7-5.7-2.3-.6-.8-.8-.8-.8.1 0 .7-.6 1-1.2.8-3.8-1.3-30-3.8-31.1-2.9zm18.8 54.9c9 1.2 23 5.9 33 11.2 15.1 8 31.7 24.8 39.8 40.3 2.8 5.4 7.7 17 7.1 17-.2 0 0 .8.5 1.7.5 1 1.2 3.5 1.5 5.7.4 2.1.9 4.2 1.1 4.7.7 1 1.6 11.7 1.6 19.4.1 6.7-1.5 18-3.3 24-1.4 4.9-1.3 4.4-2.3 7.9-.4 1.5-2.3 5.9-4.1 9.7-1.9 3.8-3.3 7.2-3.3 7.6 0 .3-.6 1-1.5 1.5s-1.6 1.6-1.6 2.3c0 .8-.4 1.5-1 1.5-.5 0-1 .7-1 1.5s-.4 1.5-1 1.5c-.5 0-1 .5-1 1 0 1-2.7 4.2-10.3 12.1-1.5 1.6-3.2 2.9-3.7 2.9-.6 0-1 .4-1 .8 0 1.8-22.1 16-26 16.7-.3 0-3 .9-6 2s-5.7 2-6 2c-.7.2-6.1 1.4-9 2.2-1.4.3-8.6.7-16 .9-19.8.5-35-3.3-51.2-12.7-9.8-5.6-14-9-22.1-17.2-10.1-10.5-19.3-25.3-23.3-37.7-.4-1.4-.9-3-1.1-3.5-.2-.6-1.2-5.5-2.2-11-1.7-9.6-2-26.3-.6-32.5.3-1.4.8-4.1 1.1-6 .3-1.9.8-3.8 1.1-4.3.2-.4.6-1.8.9-3.2.2-1.3.9-3.7 1.6-5.2.6-1.6 1.2-3 1.3-3.3.5-2.3 6.1-13 6.7-13 .4 0 .8-.5.8-1.1 0-.6 2-3.9 4.5-7.3 4.6-6.4 13.5-16.2 13.5-14.9 0 .4.6-.2 1.4-1.3.8-1.1 3.4-3.3 5.8-5 2.4-1.6 4.5-3.2 4.8-3.5 1.1-1.4 14-7.8 20.5-10.2 8.4-3.1 13.5-4.4 19.3-5.1 2.4-.2 4.6-.6 4.8-.8.6-.7 19.6-.2 25.9.7z"/></svg>