<svg width="9" height="9" viewBox="0 0 9 9" fill="current" xmlns="http://www.w3.org/2000/svg">
<path d="M8.58829 8.02608C8.6501 7.96441 8.69913 7.89115 8.73258 7.8105C8.76604 7.72985 8.78326 7.64339 8.78326 7.55608C8.78326 7.46877 8.76604 7.38232 8.73258 7.30167C8.69913 7.22102 8.6501 7.14776 8.58829 7.08608L6.00163 4.49942L8.58829 1.91275C8.65002 1.85103 8.69898 1.77775 8.73238 1.69711C8.76578 1.61647 8.78297 1.53004 8.78297 1.44275C8.78297 1.35546 8.76578 1.26903 8.73238 1.18839C8.69898 1.10774 8.65002 1.03447 8.58829 0.972749C8.52657 0.911028 8.4533 0.862069 8.37266 0.828665C8.29201 0.795262 8.20558 0.77807 8.11829 0.77807C8.03101 0.77807 7.94457 0.795262 7.86393 0.828665C7.78329 0.862069 7.71002 0.911028 7.64829 0.972749L4.58829 4.03275C4.52649 4.09443 4.47746 4.16768 4.44401 4.24833C4.41055 4.32898 4.39333 4.41544 4.39333 4.50275C4.39333 4.59006 4.41055 4.67652 4.44401 4.75717C4.47746 4.83781 4.52649 4.91107 4.58829 4.97275L7.64163 8.02608C7.90163 8.28608 8.32829 8.28608 8.58829 8.02608Z" fill="current"/>
<path d="M4.19496 8.02608C4.25676 7.96441 4.30579 7.89115 4.33925 7.8105C4.3727 7.72985 4.38992 7.64339 4.38992 7.55608C4.38992 7.46877 4.3727 7.38232 4.33925 7.30167C4.30579 7.22102 4.25676 7.14776 4.19496 7.08608L1.60829 4.49942L4.19496 1.91275C4.31961 1.7881 4.38964 1.61903 4.38964 1.44275C4.38964 1.26647 4.31961 1.0974 4.19496 0.972748C4.07031 0.848096 3.90124 0.778069 3.72496 0.778069C3.54868 0.778069 3.37961 0.848096 3.25496 0.972748L0.194961 4.03275C0.133158 4.09442 0.0841265 4.16768 0.0506725 4.24833C0.0172181 4.32898 -9.53674e-07 4.41544 -9.53674e-07 4.50275C-9.53674e-07 4.59006 0.0172181 4.67652 0.0506725 4.75717C0.0841265 4.83781 0.133158 4.91107 0.194961 4.97275L3.25496 8.03275C3.50829 8.28608 3.93496 8.28608 4.19496 8.02608Z" fill="current"/>
</svg>
