<svg width="10" height="9" viewBox="0 0 10 9" fill="current" xmlns="http://www.w3.org/2000/svg">
<path d="M0.978227 0.973918C0.916424 1.03559 0.867393 1.10885 0.833938 1.1895C0.800484 1.27015 0.783264 1.35661 0.783264 1.44392C0.783264 1.53123 0.800484 1.61768 0.833938 1.69833C0.867393 1.77898 0.916424 1.85224 0.978227 1.91392L3.56489 4.50058L0.978227 7.08725C0.916505 7.14897 0.867545 7.22225 0.834142 7.30289C0.800739 7.38353 0.783546 7.46996 0.783546 7.55725C0.783546 7.64454 0.800739 7.73097 0.834142 7.81161C0.867545 7.89226 0.916505 7.96553 0.978227 8.02725C1.03995 8.08897 1.11322 8.13793 1.19386 8.17133C1.27451 8.20474 1.36094 8.22193 1.44823 8.22193C1.53551 8.22193 1.62195 8.20474 1.70259 8.17133C1.78323 8.13793 1.85651 8.08897 1.91823 8.02725L4.97823 4.96725C5.04003 4.90557 5.08906 4.83232 5.12251 4.75167C5.15597 4.67102 5.17319 4.58456 5.17319 4.49725C5.17319 4.40994 5.15597 4.32348 5.12251 4.24283C5.08906 4.16219 5.04003 4.08893 4.97823 4.02725L1.92489 0.973918C1.66489 0.713918 1.23823 0.713918 0.978227 0.973918Z" fill="current"/>
<path d="M5.37156 0.973918C5.30976 1.03559 5.26073 1.10885 5.22727 1.1895C5.19382 1.27015 5.1766 1.35661 5.1766 1.44392C5.1766 1.53123 5.19382 1.61768 5.22727 1.69833C5.26073 1.77898 5.30976 1.85224 5.37156 1.91392L7.95823 4.50058L5.37156 7.08725C5.24691 7.2119 5.17688 7.38097 5.17688 7.55725C5.17688 7.73353 5.24691 7.9026 5.37156 8.02725C5.49621 8.1519 5.66528 8.22193 5.84156 8.22193C6.01784 8.22193 6.18691 8.1519 6.31156 8.02725L9.37156 4.96725C9.43336 4.90558 9.48239 4.83232 9.51585 4.75167C9.5493 4.67102 9.56652 4.58456 9.56652 4.49725C9.56652 4.40994 9.5493 4.32348 9.51585 4.24283C9.48239 4.16219 9.43336 4.08893 9.37156 4.02725L6.31156 0.967251C6.05823 0.713918 5.63156 0.713918 5.37156 0.973918Z" fill="current"/>
</svg>
