<svg width="24" height="24" viewBox="0 0 24 24" fill="current" xmlns="http://www.w3.org/2000/svg">
<path fill-rule="evenodd" clip-rule="evenodd" d="M18.2878 15.0656C18.3441 15.4779 18.6754 15.7839 19.0312 16L19.0348 16.0022C19.08 16.0296 19.1241 16.0587 19.1669 16.0894C19.3873 16.248 19.5742 16.4502 19.7148 16.6836C19.8962 16.9846 20.0005 17.3372 20.0005 17.7143C20.0005 17.8721 19.8726 18 19.7148 18H4.28571C4.12792 18 4 17.8721 4 17.7143C4 17.3372 4.10434 16.9846 4.28571 16.6836C4.4263 16.4502 4.61318 16.248 4.83362 16.0894C4.87633 16.0587 4.92029 16.0297 4.96543 16.0023L4.96925 16C5.32487 15.7839 5.65597 15.478 5.7122 15.0659C5.99432 12.998 6.03278 10.9007 5.82444 8.81734C5.45942 5.16727 8.33176 2 12 2C15.6683 2 18.5407 5.16727 18.1756 8.81734C17.9673 10.9006 18.0057 12.9978 18.2878 15.0656ZM7.81451 8.61832C7.5675 6.14824 9.51238 4 12 4C14.4877 4 16.4326 6.14824 16.1856 8.61832C15.9616 10.8581 16.0029 13.1128 16.3062 15.3359C16.339 15.5766 16.3985 15.7976 16.4768 16H7.52332C7.6016 15.7976 7.66103 15.5767 7.69384 15.3362C7.99715 13.113 8.03851 10.8582 7.81451 8.61832Z" fill="current" />
<path d="M13 22C13.5523 22 14 21.5523 14 21C14 20.4477 13.5523 20 13 20H11C10.4477 20 10 20.4477 10 21C10 21.5523 10.4477 22 11 22H13Z" fill="current" />
</svg>
