<svg width="15" height="14" viewBox="0 0 15 14" fill="current" xmlns="http://www.w3.org/2000/svg">
<path fill-rule="evenodd" clip-rule="evenodd" d="M1.5 3.29701V11.2307C2.10768 11.0623 2.95913 10.9165 4.08333 10.9165C5.20753 10.9165 6.05898 11.0623 6.66667 11.2307V3.29701C6.56893 3.20742 6.42498 3.09072 6.23193 2.97191C5.79741 2.70452 5.09877 2.4165 4.08333 2.4165C3.06789 2.4165 2.36926 2.70452 1.93474 2.97191C1.74168 3.09072 1.59774 3.20742 1.5 3.29701ZM6.82184 3.45663C6.82266 3.45769 6.82283 3.45786 6.82184 3.45663V3.45663ZM7.41667 2.99984L8.01667 2.54984C8.11403 2.67966 8.16667 2.83756 8.16667 2.99984V12.3332C8.16667 12.6098 8.01443 12.8639 7.77056 12.9944C7.5298 13.1233 7.23833 13.111 7.00948 12.963C7.00701 12.9614 7.00454 12.9598 7.00209 12.9582C7.00198 12.9581 7.0022 12.9582 7.00209 12.9582L7.00309 12.9588L7.00519 12.9602L7.00832 12.9622C7.00994 12.9633 7.00977 12.9632 7.00948 12.963C7.00936 12.9629 7.00993 12.9633 7.00948 12.963C7.00777 12.962 7.00363 12.9595 6.99704 12.9557C6.98041 12.9462 6.94809 12.9285 6.89941 12.9051C6.80215 12.8585 6.63896 12.7888 6.40444 12.7167C5.93631 12.5726 5.17745 12.4165 4.08333 12.4165C2.98922 12.4165 2.23036 12.5726 1.76223 12.7167C1.52771 12.7888 1.36451 12.8585 1.26726 12.9051C1.21858 12.9285 1.18625 12.9462 1.16963 12.9557C1.16303 12.9595 1.1589 12.962 1.15719 12.963M1.16538 12.9576L1.16358 12.9588L1.16148 12.9602L1.15834 12.9622C1.15672 12.9633 1.1569 12.9632 1.15719 12.963C1.15674 12.9633 1.15731 12.9629 1.15719 12.963C0.928342 13.111 0.636865 13.1233 0.396107 12.9944C0.152238 12.8639 0 12.6098 0 12.3332V2.99984C0 2.83756 0.0526334 2.67966 0.15 2.54984L0.75 2.99984C0.15 2.54984 0.149746 2.55018 0.15 2.54984L0.151034 2.54846L0.152167 2.54696L0.15473 2.54359L0.161054 2.53539L0.178527 2.51338C0.192331 2.49631 0.210487 2.4745 0.233094 2.44867C0.278279 2.39703 0.341422 2.32907 0.42331 2.25046C0.586955 2.09336 0.826672 1.89253 1.14859 1.69443C1.79741 1.29516 2.76544 0.916504 4.08333 0.916504C5.40123 0.916504 6.36926 1.29516 7.01807 1.69443C7.33999 1.89253 7.57971 2.09336 7.74336 2.25046C7.82524 2.32907 7.88839 2.39703 7.93357 2.44867C7.95618 2.4745 7.97434 2.49631 7.98814 2.51338L8.00561 2.53539L8.01194 2.54359L8.0145 2.54696L8.01563 2.54846L8.01667 2.54984C8.01692 2.55018 8.01667 2.54984 7.41667 2.99984" fill="current"/>
<path fill-rule="evenodd" clip-rule="evenodd" d="M8.16671 3.29701V11.2307C8.77439 11.0623 9.62584 10.9165 10.75 10.9165C11.8742 10.9165 12.7257 11.0623 13.3334 11.2307V3.29701C13.2356 3.20742 13.0917 3.09072 12.8986 2.97191C12.4641 2.70452 11.7655 2.4165 10.75 2.4165C9.7346 2.4165 9.03596 2.70452 8.60145 2.97191C8.40839 3.09072 8.26444 3.20742 8.16671 3.29701ZM13.4885 3.45663C13.4894 3.45769 13.4895 3.45786 13.4885 3.45663V3.45663ZM14.0834 2.99984L14.6834 2.54984C14.7807 2.67966 14.8334 2.83756 14.8334 2.99984V12.3332C14.8334 12.6098 14.6811 12.8639 14.4373 12.9944C14.1965 13.1233 13.905 13.111 13.6762 12.963C13.6737 12.9614 13.6713 12.9598 13.6688 12.9582C13.6687 12.9581 13.6689 12.9582 13.6688 12.9582L13.6698 12.9588L13.6719 12.9602L13.675 12.9622C13.6766 12.9633 13.6765 12.9632 13.6762 12.963C13.6761 12.9629 13.6766 12.9633 13.6762 12.963C13.6745 12.962 13.6703 12.9595 13.6637 12.9557C13.6471 12.9462 13.6148 12.9285 13.5661 12.9051C13.4689 12.8585 13.3057 12.7888 13.0711 12.7167C12.603 12.5726 11.8442 12.4165 10.75 12.4165C9.65593 12.4165 8.89706 12.5726 8.42894 12.7167C8.19441 12.7888 8.03122 12.8585 7.93396 12.9051C7.88528 12.9285 7.85296 12.9462 7.83634 12.9557C7.82974 12.9595 7.82561 12.962 7.82389 12.963M7.83209 12.9576L7.83028 12.9588L7.82819 12.9602L7.82505 12.9622C7.82343 12.9633 7.82361 12.9632 7.82389 12.963C7.82345 12.9633 7.82401 12.9629 7.82389 12.963C7.59505 13.111 7.30357 13.1233 7.06281 12.9944C6.81895 12.8639 6.66671 12.6098 6.66671 12.3332V2.99984C6.66671 2.83756 6.71934 2.67966 6.81671 2.54984L7.41667 2.99984C6.81667 2.54984 6.81645 2.55018 6.81671 2.54984L6.81774 2.54846L6.81887 2.54696L6.82144 2.54359L6.82776 2.53539L6.84523 2.51338C6.85904 2.49631 6.87719 2.4745 6.8998 2.44867C6.94499 2.39703 7.00813 2.32907 7.09002 2.25046C7.25366 2.09336 7.49338 1.89253 7.8153 1.69443C8.46412 1.29516 9.43215 0.916504 10.75 0.916504C12.0679 0.916504 13.036 1.29516 13.6848 1.69443C14.0067 1.89253 14.2464 2.09336 14.4101 2.25046C14.492 2.32907 14.5551 2.39703 14.6003 2.44867C14.6229 2.4745 14.641 2.49631 14.6548 2.51338L14.6723 2.53539L14.6786 2.54359L14.6812 2.54696L14.6823 2.54846L14.6834 2.54984C14.6836 2.55018 14.6834 2.54984 14.0834 2.99984" fill="current"/>
</svg>
