<svg width="24" height="24" viewBox="0 0 24 24" fill="current" xmlns="http://www.w3.org/2000/svg">
<path d="M6 10.1961C6 9.57732 6.56611 9.11322 7.17289 9.23458L9.68904 9.73781C10.4513 9.89026 11 10.5596 11 11.3369C11 11.68 10.6862 11.9372 10.3498 11.87L6.78827 11.1577C6.32993 11.066 6 10.6635 6 10.1961Z" fill="current" />
<path d="M7.17289 13.2346C6.56611 13.1132 6 13.5773 6 14.1961C6 14.6635 6.32993 15.066 6.78827 15.1577L10.3498 15.87C10.6862 15.9372 11 15.68 11 15.3369C11 14.5596 10.4513 13.8903 9.68904 13.7378L7.17289 13.2346Z" fill="current" />
<path fill-rule="evenodd" clip-rule="evenodd" d="M12 6L11.1672 5.58359C9.08435 4.54218 6.78766 4 4.45898 4H3C2.44772 4 2 4.44772 2 5V19C2 19.5523 2.44772 20 3 20H5.16718C7.03013 20 8.86748 20.4337 10.5337 21.2669L11.5213 21.7607C11.8204 21.9102 12.1744 21.9004 12.4647 21.7345L12.7331 21.5811C14.5463 20.545 16.5984 20 18.6868 20H21C21.5523 20 22 19.5523 22 19V5C22 4.44772 21.5523 4 21 4H19.541C17.2123 4 14.9156 4.54218 12.8328 5.58359L12 6ZM12 8.23607L10.2728 7.37245C8.46764 6.46989 6.47717 6 4.45898 6H4V18H5.16718C7.34062 18 9.4842 18.506 11.4282 19.478L11.939 19.7335C14.0052 18.5969 16.3262 18 18.6868 18H20V6H19.541C17.5228 6 15.5324 6.46989 13.7272 7.37245L12 8.23607Z" fill="current" />
</svg>
