<svg width="24" height="24" viewBox="0 0 24 24" fill="current" xmlns="http://www.w3.org/2000/svg">
<path d="M17 15C17 15.5523 16.5523 16 16 16H14C13.4477 16 13 15.5523 13 15C13 14.4477 13.4477 14 14 14H16C16.5523 14 17 14.4477 17 15Z" fill="current" />
<path fill-rule="evenodd" clip-rule="evenodd" d="M9 1C9.55228 1 10 1.44772 10 2V3H14V2C14 1.44772 14.4477 1 15 1C15.5523 1 16 1.44772 16 2V3H18C20.2091 3 22 4.79086 22 7V17C22 19.2091 20.2091 21 18 21H6C3.79086 21 2 19.2091 2 17V7C2 4.79086 3.79086 3 6 3H8V2C8 1.44772 8.44772 1 9 1ZM18 5C19.1046 5 20 5.89543 20 7V8H4V7C4 5.89543 4.89543 5 6 5H18ZM4 17V10H20V17C20 18.1046 19.1046 19 18 19H6C4.89543 19 4 18.1046 4 17Z" fill="current" />
</svg>
