<svg width="24" height="24" viewBox="0 0 24 24" fill="current" xmlns="http://www.w3.org/2000/svg">
<path fill-rule="evenodd" clip-rule="evenodd" d="M12 8C9.79086 8 8 9.79086 8 12C8 14.2091 9.79086 16 12 16C14.2091 16 16 14.2091 16 12C16 9.79086 14.2091 8 12 8ZM10 12C10 10.8954 10.8954 10 12 10C13.1046 10 14 10.8954 14 12C14 13.1046 13.1046 14 12 14C10.8954 14 10 13.1046 10 12Z" fill="current" />
<path fill-rule="evenodd" clip-rule="evenodd" d="M16.0136 4.13169C16.1537 4.3569 16.2947 4.58361 16.4573 4.78947H18.3636C20.3719 4.78947 22 6.39182 22 8.36842V16.4211C22 18.3976 20.3719 20 18.3636 20H5.63636C3.62806 20 2 18.3976 2 16.4211V8.36842C2 6.39182 3.62806 4.78947 5.63636 4.78947H7.54274C7.70535 4.58361 7.84634 4.35691 7.98639 4.1317C8.05206 4.0261 8.11753 3.92083 8.18492 3.81819C8.51988 3.30807 9.09486 3 9.71197 3H14.288C14.9051 3 15.4801 3.30808 15.8151 3.81819C15.8825 3.92083 15.9479 4.02609 16.0136 4.13169ZM14.8878 6.02917L15.4884 6.78947H18.3636C19.2975 6.78947 20 7.52628 20 8.36842V16.4211C20 17.2632 19.2975 18 18.3636 18H5.63636C4.7025 18 4 17.2632 4 16.4211V8.36842C4 7.52628 4.7025 6.78947 5.63636 6.78947H8.51161L9.11217 6.02919C9.3522 5.72532 9.61679 5.29997 9.76449 5.06254L9.80343 5H14.1966L14.2355 5.06254C14.3832 5.29998 14.6478 5.72532 14.8878 6.02917Z" fill="current" />
</svg>
