<svg width="24" height="24" viewBox="0 0 24 24" fill="current" xmlns="http://www.w3.org/2000/svg">
<path fill-rule="evenodd" clip-rule="evenodd" d="M3 4C2.44772 4 2 4.44772 2 5C2 5.55228 2.44772 6 3 6H3.88317C4.35471 6 4.76217 6.3294 4.86097 6.79047L6.0222 12.2095L6.02876 12.2081L6.14077 12.7751C6.51096 14.6492 8.15464 16 10.0649 16H15.9351C17.8454 16 19.489 14.6492 19.8592 12.7751L20.5284 9.38757C20.7726 8.15131 19.8265 7 18.5663 7H7.43371C7.27098 7 7.11349 7.0192 6.96312 7.0553L6.81658 6.37141C6.52017 4.9882 5.29778 4 3.88317 4H3ZM7.43371 9H18.5663L17.8971 12.3876C17.712 13.3246 16.8902 14 15.9351 14H10.0649C9.10979 14 8.28795 13.3246 8.10286 12.3876L7.43371 9Z" fill="current"/>
<path d="M8 21C9.10457 21 10 20.1046 10 19C10 17.8954 9.10457 17 8 17C6.89543 17 6 17.8954 6 19C6 20.1046 6.89543 21 8 21Z" fill="current"/>
<path d="M19 19C19 20.1046 18.1046 21 17 21C15.8954 21 15 20.1046 15 19C15 17.8954 15.8954 17 17 17C18.1046 17 19 17.8954 19 19Z" fill="current"/>
</svg>
