<svg width="24" height="24" viewBox="0 0 24 24" fill="current" xmlns="http://www.w3.org/2000/svg">
<path d="M21 20C21 20.5523 20.5523 21 20 21H4C3.44772 21 3 20.5523 3 20V4C3 3.44772 3.44772 3 4 3C4.55228 3 5 3.44772 5 4V19H20C20.5523 19 21 19.4477 21 20ZM9.04494 15.3422C8.67154 15.7078 8.07446 15.7078 7.70106 15.3422C7.31629 14.9656 7.3162 14.3463 7.70087 13.9696L11.856 9.9C12.2383 9.52848 12.8467 9.52848 13.229 9.9L15.456 12.081L18.955 8.65751C19.3285 8.29211 19.9255 8.29218 20.2989 8.65767C20.6837 9.03436 20.6838 9.65373 20.299 10.0305L16.144 14.1C15.7617 14.4715 15.1533 14.4715 14.771 14.1L12.543 11.918L9.04494 15.3422Z" fill="current" />
</svg>
