<svg width="24" height="24" viewBox="0 0 24 24" fill="current" xmlns="http://www.w3.org/2000/svg">
<path d="M12.7208 6.59912H11.2208L10.8099 12.3523C10.7646 12.9857 11.2869 13.4523 11.7784 13.7592L15.661 16.1832L16.721 15.0991L13.1284 12.3047L12.7208 6.59912Z" fill="current" />
<path fill-rule="evenodd" clip-rule="evenodd" d="M22 12C22 17.5228 17.5228 22 12 22C6.47715 22 2 17.5228 2 12C2 6.47715 6.47715 2 12 2C17.5228 2 22 6.47715 22 12ZM20 12C20 16.4183 16.4183 20 12 20C7.58172 20 4 16.4183 4 12C4 7.58172 7.58172 4 12 4C16.4183 4 20 7.58172 20 12Z" fill="current" />
</svg>
