<svg width="24" height="24" viewBox="0 0 24 24" fill="current" xmlns="http://www.w3.org/2000/svg">
<path d="M16.9497 8.46419C17.3402 8.07366 17.3402 7.4405 16.9497 7.04997C16.5592 6.65945 15.926 6.65945 15.5355 7.04997L12 10.5855L8.46451 7.04999C8.07399 6.65946 7.44082 6.65946 7.0503 7.04999C6.65977 7.44051 6.65977 8.07368 7.0503 8.4642L10.5858 11.9997L7.05022 15.5353C6.65969 15.9258 6.65969 16.5589 7.05022 16.9495C7.44074 17.34 8.07391 17.34 8.46443 16.9495L12 13.4139L15.5356 16.9495C15.9261 17.34 16.5593 17.34 16.9498 16.9495C17.3403 16.559 17.3403 15.9258 16.9498 15.5353L13.4142 11.9997L16.9497 8.46419Z" fill="current" />
</svg>
