<svg width="24" height="24" viewBox="0 0 24 24" fill="current" xmlns="http://www.w3.org/2000/svg">
<path fill-rule="evenodd" clip-rule="evenodd" d="M18 6H6C4.89543 6 4 6.89543 4 8V15C4 16.1046 4.89543 17 6 17H7.03875C8.25389 17 9.40314 17.5524 10.1622 18.5012L12 20.7984L13.8378 18.5012C14.5969 17.5524 15.7461 17 16.9612 17H18C19.1046 17 20 16.1046 20 15V8C20 6.89543 19.1046 6 18 6ZM6 4C3.79086 4 2 5.79086 2 8V15C2 17.2091 3.79086 19 6 19H7.03875C7.64632 19 8.22094 19.2762 8.60049 19.7506L10.4383 22.0478C11.2389 23.0486 12.7611 23.0486 13.5617 22.0478L15.3995 19.7506C15.7791 19.2762 16.3537 19 16.9612 19H18C20.2091 19 22 17.2091 22 15V8C22 5.79086 20.2091 4 18 4H6Z" fill="current" />
</svg>
