<svg width="24" height="24" viewBox="0 0 24 24" fill="current" xmlns="http://www.w3.org/2000/svg">
<path fill-rule="evenodd" clip-rule="evenodd" d="M17 7C17 8.43591 16.3947 9.73045 15.4254 10.6424C16.0661 10.898 16.6621 11.2267 17.1913 11.6227C17.8943 12.1487 18.4724 12.7885 18.8749 13.5157C19.1424 13.9989 18.9675 14.6074 18.4843 14.8749C18.0011 15.1424 17.3926 14.9675 17.1251 14.4843C16.8749 14.0323 16.4962 13.6006 15.9931 13.224C15.4898 12.8474 14.8784 12.5387 14.1892 12.3251C13.5004 12.1116 12.7559 12 12 12C11.2441 12 10.4996 12.1116 9.81078 12.3251C9.12159 12.5387 8.51023 12.8474 8.00693 13.224C7.50376 13.6006 7.12511 14.0323 6.87491 14.4843C6.60744 14.9675 5.9989 15.1424 5.51571 14.8749C5.03251 14.6074 4.85763 13.9989 5.12509 13.5157C5.52763 12.7885 6.10572 12.1487 6.80867 11.6227C7.33792 11.2267 7.93391 10.898 8.57463 10.6424C7.60529 9.73045 7 8.43591 7 7C7 4.23858 9.23858 2 12 2C14.7614 2 17 4.23858 17 7ZM12 10C13.6569 10 15 8.65685 15 7C15 5.34315 13.6569 4 12 4C10.3431 4 9 5.34315 9 7C9 8.65685 10.3431 10 12 10Z" fill="current" />
<path d="M3 16C2.44772 16 2 16.4477 2 17V20C2 20.5523 2.44772 21 3 21C3.55228 21 4 20.5523 4 20V18H20V20C20 20.5523 20.4477 21 21 21C21.5523 21 22 20.5523 22 20V17C22 16.4477 21.5523 16 21 16H3Z" fill="current" />
</svg>
