<svg width="24" height="24" viewBox="0 0 24 24" fill="current" xmlns="http://www.w3.org/2000/svg">
<path fill-rule="evenodd" clip-rule="evenodd" d="M8 6C8 3.79086 9.79086 2 12 2H18C20.2091 2 22 3.79086 22 6V12C22 14.2091 20.2091 16 18 16H12C9.79086 16 8 14.2091 8 12V6ZM12 4H18C19.1046 4 20 4.89543 20 6V12C20 13.1046 19.1046 14 18 14H12C10.8954 14 10 13.1046 10 12V6C10 4.89543 10.8954 4 12 4Z" fill="current" />
<path d="M4 12C4 10.8954 4.89543 10 6 10V8C3.79086 8 2 9.79086 2 12V17C2 19.7614 4.23858 22 7 22H12C14.2091 22 16 20.2091 16 18H14C14 19.1046 13.1046 20 12 20H7C5.34315 20 4 18.6569 4 17V12Z" fill="current" />
</svg>
