<svg width="25" height="24" viewBox="0 0 25 24" fill="current" xmlns="http://www.w3.org/2000/svg">
<path fill-rule="evenodd" clip-rule="evenodd" d="M12.7854 4.5735C12.6032 4.51584 12.4084 4.51155 12.2239 4.56114L2.74079 7.11029C1.9088 7.33394 1.73015 8.4348 2.44872 8.91007L2.77153 9.12359C2.66212 9.28393 2.59814 9.47776 2.59814 9.68652V12.6865C2.59814 13.2388 3.04586 13.6865 3.59814 13.6865C4.15043 13.6865 4.59814 13.2388 4.59814 12.6865V10.3317L5.06624 10.6413C5.02345 10.7527 5 10.8736 5 11V16.9716C5 17.223 5.08898 17.4577 5.23812 17.641C8.88136 22.1197 16.1186 22.1197 19.7619 17.641C19.911 17.4576 20 17.223 20 16.9716V11.215L22.7772 9.46271C23.4968 9.00865 23.3566 7.92048 22.5454 7.66363L12.7854 4.5735ZM18 12.4769L13.3475 15.4125C13.0149 15.6224 12.5902 15.6178 12.2622 15.4009L7 11.9203V16.6254C9.83536 19.7915 15.1646 19.7915 18 16.6254V12.4769ZM12.4606 6.56852L5.40244 8.46581L12.8267 13.3763L19.8888 8.92036L12.4606 6.56852Z" fill="current" />
</svg>
