<svg width="24" height="24" viewBox="0 0 24 24" fill="current" xmlns="http://www.w3.org/2000/svg">
<path d="M8 12C8 11.4477 8.44772 11 9 11H11V9C11 8.44772 11.4477 8 12 8C12.5523 8 13 8.44772 13 9V11H15C15.5523 11 16 11.4477 16 12C16 12.5523 15.5523 13 15 13H13V15C13 15.5523 12.5523 16 12 16C11.4477 16 11 15.5523 11 15V13H9C8.44772 13 8 12.5523 8 12Z" fill="current" />
<path fill-rule="evenodd" clip-rule="evenodd" d="M3.45672 6.7039C3 7.80653 3 9.20435 3 12C3 14.7956 3 16.1935 3.45672 17.2961C4.06569 18.7663 5.23373 19.9343 6.7039 20.5433C7.80653 21 9.20435 21 12 21C14.7956 21 16.1935 21 17.2961 20.5433C18.7663 19.9343 19.9343 18.7663 20.5433 17.2961C21 16.1935 21 14.7956 21 12C21 9.20435 21 7.80653 20.5433 6.7039C19.9343 5.23373 18.7663 4.06569 17.2961 3.45672C16.1935 3 14.7956 3 12 3C9.20435 3 7.80653 3 6.7039 3.45672C5.23373 4.06569 4.06569 5.23373 3.45672 6.7039ZM8.85321 18.9475C9.60608 18.9989 10.5748 19 12 19C13.4252 19 14.3939 18.9989 15.1468 18.9475C15.8817 18.8974 16.2637 18.8061 16.5307 18.6955C17.5108 18.2895 18.2895 17.5108 18.6955 16.5307C18.8061 16.2637 18.8974 15.8817 18.9475 15.1468C18.9989 14.3939 19 13.4252 19 12C19 10.5748 18.9989 9.60608 18.9475 8.85321C18.8974 8.1183 18.8061 7.73626 18.6955 7.46927C18.2895 6.48915 17.5108 5.71046 16.5307 5.30448C16.2637 5.19389 15.8817 5.10259 15.1468 5.05245C14.3939 5.00108 13.4252 5 12 5C10.5748 5 9.60608 5.00108 8.85321 5.05245C8.1183 5.10259 7.73626 5.19389 7.46927 5.30448C6.48915 5.71046 5.71046 6.48915 5.30448 7.46927C5.19389 7.73626 5.10259 8.1183 5.05245 8.85321C5.00108 9.60608 5 10.5748 5 12C5 13.4252 5.00108 14.3939 5.05245 15.1468C5.10259 15.8817 5.19389 16.2637 5.30448 16.5307C5.71046 17.5108 6.48915 18.2895 7.46927 18.6955C7.73626 18.8061 8.1183 18.8974 8.85321 18.9475Z" fill="current" />
</svg>
