<svg width="24" height="24" viewBox="0 0 24 24" fill="current" xmlns="http://www.w3.org/2000/svg">
<path fill-rule="evenodd" clip-rule="evenodd" d="M12 7C12 9.76142 9.76142 12 7 12C4.23858 12 2 9.76142 2 7C2 4.23858 4.23858 2 7 2C9.76142 2 12 4.23858 12 7ZM10 7C10 8.65685 8.65685 10 7 10C5.34315 10 4 8.65685 4 7C4 5.34315 5.34315 4 7 4C8.65685 4 10 5.34315 10 7Z" fill="current" />
<path fill-rule="evenodd" clip-rule="evenodd" d="M22 17C22 19.7614 19.7614 22 17 22C14.2386 22 12 19.7614 12 17C12 14.2386 14.2386 12 17 12C19.7614 12 22 14.2386 22 17ZM20 17C20 18.6569 18.6569 20 17 20C15.3431 20 14 18.6569 14 17C14 15.3431 15.3431 14 17 14C18.6569 14 20 15.3431 20 17Z" fill="current" />
<path d="M21 6L20.5 11C19.6002 11.0054 18.8578 10.3326 18.5355 9.49252C18.2251 8.68362 17.7656 7.93503 17.1763 7.28764C16.4577 6.4983 15.5712 5.8871 14.5874 5.49574C14.0743 5.2916 13.7396 4.75829 13.8686 4.22128C13.9976 3.68427 14.5402 3.34825 15.0596 3.536C16.4311 4.03179 17.6667 4.85543 18.6552 5.94125C18.9076 6.21849 19.1238 6.52201 19.3102 6.84492L21 6Z" fill="current" />
<path d="M3.5 13.0887L3 18.0887L4.68982 17.2438C4.87621 17.5667 5.09238 17.8702 5.34479 18.1475C6.3333 19.2333 7.56885 20.0569 8.94041 20.5527C9.4598 20.7405 10.0024 20.4045 10.1314 19.8674C10.2604 19.3304 9.92572 18.7971 9.41255 18.593C8.42877 18.2016 7.54232 17.5904 6.82372 16.8011C6.23435 16.1537 5.77486 15.4051 5.4645 14.5962C5.14217 13.7561 4.3998 13.0834 3.5 13.0887Z" fill="current" />
</svg>
