<svg width="24" height="24" viewBox="0 0 24 24" fill="current" xmlns="http://www.w3.org/2000/svg">
<path fill-rule="evenodd" clip-rule="evenodd" d="M4 3C2.89543 3 2 3.89543 2 5V19C2 20.1046 2.89543 21 4 21H9C10.1046 21 11 20.1046 11 19V5C11 3.89543 10.1046 3 9 3H4ZM9 5H4L4 19H9V5Z" fill="current" />
<path fill-rule="evenodd" clip-rule="evenodd" d="M15 3C13.8954 3 13 3.89543 13 5V10C13 11.1046 13.8954 12 15 12H20C21.1046 12 22 11.1046 22 10V5C22 3.89543 21.1046 3 20 3H15ZM20 5H15V10H20V5Z" fill="current" />
<path fill-rule="evenodd" clip-rule="evenodd" d="M13 16C13 14.8954 13.8954 14 15 14H20C21.1046 14 22 14.8954 22 16V19C22 20.1046 21.1046 21 20 21H15C13.8954 21 13 20.1046 13 19V16ZM15 16H20V19H15V16Z" fill="current" />
</svg>
