<svg width="17" height="14" viewBox="0 0 17 14" fill="current" xmlns="http://www.w3.org/2000/svg">
<path fill-rule="evenodd" clip-rule="evenodd" d="M2.75 3.75C2.75 3.33579 3.08579 3 3.5 3H6C6.41421 3 6.75 3.33579 6.75 3.75C6.75 4.16421 6.41421 4.5 6 4.5H3.5C3.08579 4.5 2.75 4.16421 2.75 3.75Z" fill="current"/>
<path fill-rule="evenodd" clip-rule="evenodd" d="M2.75 6.75C2.75 6.33579 3.08579 6 3.5 6H6C6.41421 6 6.75 6.33579 6.75 6.75C6.75 7.16421 6.41421 7.5 6 7.5H3.5C3.08579 7.5 2.75 7.16421 2.75 6.75Z" fill="current"/>
<path fill-rule="evenodd" clip-rule="evenodd" d="M2.75 9.75C2.75 9.33579 3.08579 9 3.5 9H6C6.41421 9 6.75 9.33579 6.75 9.75C6.75 10.1642 6.41421 10.5 6 10.5H3.5C3.08579 10.5 2.75 10.1642 2.75 9.75Z" fill="current"/>
<path fill-rule="evenodd" clip-rule="evenodd" d="M0 1C0 0.585786 0.335786 0.25 0.75 0.25H11.75C12.1642 0.25 12.5 0.585786 12.5 1V3.03095C14.4732 3.277 16 4.96019 16 7C16 7.85512 15.7317 8.64757 15.2746 9.29774C15.285 9.30706 15.2952 9.31672 15.3052 9.32672L16.5303 10.5518C16.8232 10.8447 16.8232 11.3195 16.5303 11.6124C16.2374 11.9053 15.7625 11.9053 15.4696 11.6124L14.2446 10.3874C14.2294 10.3722 14.2149 10.3565 14.2013 10.3403C13.7014 10.6705 13.1229 10.8914 12.5 10.9691V13C12.5 13.4142 12.1642 13.75 11.75 13.75H0.75C0.335786 13.75 0 13.4142 0 13V1ZM11 10.874C9.27477 10.4299 8 8.86384 8 7C8 5.13616 9.27477 3.57006 11 3.12602V1.75H1.5V12.25H11V10.874ZM12 9.5C13.3807 9.5 14.5 8.38071 14.5 7C14.5 5.61929 13.3807 4.5 12 4.5C10.6193 4.5 9.5 5.61929 9.5 7C9.5 8.38071 10.6193 9.5 12 9.5Z" fill="current"/>
</svg>
