<svg width="24" height="24" viewBox="0 0 24 24" fill="current" xmlns="http://www.w3.org/2000/svg">
<path fill-rule="evenodd" clip-rule="evenodd" d="M8.7644 3.02815C8.91922 2.99062 9.08078 2.99062 9.2356 3.02815L15 4.42558L19.5288 3.32769C20.7876 3.02253 22 3.97614 22 5.27139L22 17.7589C22 18.682 21.3683 19.4851 20.4712 19.7026L15.2356 20.9718C15.0808 21.0094 14.9192 21.0094 14.7644 20.9718L9 19.5744L4.4712 20.6723C3.21241 20.9775 2 20.0239 2 18.7286V6.24109C2 5.31802 2.63172 4.51486 3.5288 4.29739L8.7644 3.02815ZM10 17.7589L14 18.7286L14 6.24109L10 5.27139V17.7589ZM8 5.27139V17.7589L4 18.7286V6.24109L8 5.27139ZM16 6.24109L16 18.7286L20 17.7589L20 5.27139L16 6.24109Z" fill="current" />
</svg>
