<svg width="24" height="24" viewBox="0 0 24 24" fill="current" xmlns="http://www.w3.org/2000/svg">
<path d="M15.5178 6.59134L11.4254 10.1329L9.83212 7.74307C9.68096 7.51633 9.44382 7.3611 9.17554 7.31328C8.90726 7.26547 8.63108 7.32921 8.4109 7.48976L4.4109 10.4064C3.96465 10.7318 3.86667 11.3574 4.19206 11.8036C4.51745 12.2499 5.14299 12.3478 5.58924 12.0224L8.74654 9.72025L10.3902 12.1858C10.5494 12.4246 10.8036 12.5835 11.088 12.622C11.3724 12.6606 11.6596 12.5751 11.8767 12.3873L16.9357 8.00923L18.0137 9.08715C18.312 9.38544 18.8228 9.20304 18.8647 8.78328L19.2875 4.54974C19.3188 4.23544 19.0546 3.97115 18.7403 4.00254L14.5067 4.42526C14.087 4.46718 13.9046 4.97805 14.2029 5.27634L15.5178 6.59134Z" fill="current" />
<path d="M17.0001 20.6311C16.4478 20.6311 16.0001 20.1834 16.0001 19.6311V11.6311C16.0001 11.0788 16.4478 10.6311 17.0001 10.6311C17.5524 10.6311 18.0001 11.0788 18.0001 11.6311V19.6311C18.0001 20.1834 17.5524 20.6311 17.0001 20.6311Z" fill="current" />
<path d="M4.00007 19.6311C4.00007 20.1834 4.44778 20.6311 5.00007 20.6311C5.55235 20.6311 6.00007 20.1834 6.00007 19.6311L6.00007 14.6311C6.00007 14.0788 5.55235 13.6311 5.00007 13.6311C4.44778 13.6311 4.00007 14.0788 4.00007 14.6311L4.00007 19.6311Z" fill="current" />
<path d="M12.0001 19.6311C12.0001 20.1834 12.4478 20.6311 13.0001 20.6311C13.5524 20.6311 14.0001 20.1834 14.0001 19.6311V15.6311C14.0001 15.0788 13.5524 14.6311 13.0001 14.6311C12.4478 14.6311 12.0001 15.0788 12.0001 15.6311V19.6311Z" fill="current" />
<path d="M8.00007 19.6311C8.00007 20.1834 8.44778 20.6311 9.00007 20.6311C9.55235 20.6311 10.0001 20.1834 10.0001 19.6311V17.1312C10.0001 16.5789 9.55235 16.1312 9.00007 16.1312C8.44778 16.1312 8.00007 16.5789 8.00007 17.1312V19.6311Z" fill="current" />
</svg>
