<svg width="24" height="24" viewBox="0 0 24 24" fill="current" xmlns="http://www.w3.org/2000/svg">
<path fill-rule="evenodd" clip-rule="evenodd" d="M6.41405 16.2937C6.30285 16.6597 6.40229 17.0571 6.67272 17.3275C6.94315 17.5979 7.34057 17.6974 7.70649 17.5862L12.5264 16.1214C13.7473 15.7503 14.7179 14.819 15.1391 13.6145L17.0173 8.24292C17.1427 7.88438 17.0517 7.48571 16.7831 7.21713C16.5145 6.94855 16.1158 6.85751 15.7573 6.98288L10.3857 8.86114C9.18119 9.28233 8.24989 10.2529 7.87884 11.4739L6.41405 16.2937ZM12.6919 13.7891L10.2111 11.3083C10.4342 11.0573 10.7201 10.863 11.0459 10.7491L14.4369 9.56332L13.2512 12.9544C13.1372 13.2802 12.9429 13.566 12.6919 13.7891Z" fill="current" />
<path fill-rule="evenodd" clip-rule="evenodd" d="M12 1C10.5555 1 9.12506 1.28452 7.79048 1.83732C6.4559 2.39013 5.24327 3.20038 4.22183 4.22182C3.20038 5.24327 2.39013 6.4559 1.83733 7.79048C1.28452 9.12506 1 10.5555 1 12C1 13.4445 1.28452 14.8749 1.83732 16.2095C2.39013 17.5441 3.20038 18.7567 4.22182 19.7782C5.24327 20.7996 6.4559 21.6099 7.79048 22.1627C9.12506 22.7155 10.5555 23 12 23C13.4445 23 14.8749 22.7155 16.2095 22.1627C17.5441 21.6099 18.7567 20.7996 19.7782 19.7782C20.7996 18.7567 21.6099 17.5441 22.1627 16.2095C22.7155 14.8749 23 13.4445 23 12C23 10.5555 22.7155 9.12507 22.1627 7.79048C21.6099 6.4559 20.7996 5.24327 19.7782 4.22183C18.7567 3.20038 17.5441 2.39013 16.2095 1.83733C14.8749 1.28452 13.4445 1 12 1ZM8.55585 3.68508C9.64778 3.23279 10.8181 3 12 3C13.1819 3 14.3522 3.23279 15.4442 3.68508C16.5361 4.13738 17.5282 4.80031 18.364 5.63604C19.1997 6.47177 19.8626 7.46392 20.3149 8.55585C20.7672 9.64778 21 10.8181 21 12C21 13.1819 20.7672 14.3522 20.3149 15.4442C19.8626 16.5361 19.1997 17.5282 18.364 18.364C17.5282 19.1997 16.5361 19.8626 15.4442 20.3149C14.3522 20.7672 13.1819 21 12 21C10.8181 21 9.64778 20.7672 8.55585 20.3149C7.46392 19.8626 6.47177 19.1997 5.63604 18.364C4.80031 17.5282 4.13738 16.5361 3.68508 15.4441C3.23279 14.3522 3 13.1819 3 12C3 10.8181 3.23279 9.64778 3.68508 8.55585C4.13738 7.46392 4.80031 6.47177 5.63604 5.63604C6.47177 4.80031 7.46392 4.13738 8.55585 3.68508Z" fill="current" />
</svg>
