<svg width="24" height="24" viewBox="0 0 24 24" fill="current" xmlns="http://www.w3.org/2000/svg">
<path d="M15 12C15 10.3431 13.6568 9 12 9C10.3431 9 8.99998 10.3431 8.99998 12C8.99998 13.6569 10.3431 15 12 15C13.6568 15 15 13.6569 15 12Z" fill="current" />
<path fill-rule="evenodd" clip-rule="evenodd" d="M12.1967 4C16.1462 4 19.7825 6.15005 21.6858 9.61065L22.6168 11.3032C22.8554 11.7371 22.8554 12.2629 22.6168 12.6968L21.7806 14.217C19.8188 17.7839 16.0708 20 12 20C7.92915 20 4.18112 17.7839 2.21932 14.217L1.42515 12.773C1.16449 12.2991 1.19337 11.7187 1.4998 11.273L3.27262 8.69434C5.29296 5.75567 8.63054 4 12.1967 4ZM3.97175 13.2531L3.34675 12.1168L4.9207 9.8274C6.56793 7.43143 9.28913 6 12.1967 6C15.4168 6 18.3816 7.75298 19.9334 10.5745L20.7174 12L20.0282 13.2531C18.4179 16.181 15.3414 18 12 18C8.65854 18 5.58206 16.181 3.97175 13.2531Z" fill="current" />
</svg>
