<svg width="24" height="24" viewBox="0 0 24 24" fill="current" xmlns="http://www.w3.org/2000/svg">
<path d="M22.8321 9.55481C23.1384 9.09528 23.0143 8.47441 22.5547 8.16806C22.0952 7.8617 21.4743 7.98588 21.168 8.44541L20.4962 9.45311C18.6026 12.2936 15.4147 13.9998 12.001 14.0001C12.0007 14.0001 12.0013 14.0001 12.001 14.0001C8.58687 14.0001 5.3977 12.2938 3.50389 9.45311L2.83209 8.44541C2.52574 7.98588 1.90487 7.8617 1.44534 8.16806C0.985809 8.47441 0.861635 9.09528 1.16799 9.55481L1.83979 10.5625C2.08633 10.9323 2.35123 11.2861 2.63282 11.6229L0.377376 13.4176C-0.0547817 13.7615 -0.126339 14.3906 0.217548 14.8228C0.561435 15.2549 1.19054 15.3265 1.6227 14.9826L4.04589 13.0544C4.84612 13.7413 5.73008 14.3198 6.67405 14.7774L4.87697 17.4408C4.56807 17.8986 4.68878 18.5201 5.1466 18.8291C5.60441 19.138 6.22596 19.0172 6.53487 18.5594L8.58952 15.5143C9.37014 15.7415 10.1773 15.8917 11 15.9592V19.5001C11 20.0524 11.4478 20.5001 12 20.5001C12.5523 20.5001 13 20.0524 13 19.5001V15.9592C13.8228 15.8917 14.6299 15.7415 15.4106 15.5143L17.4652 18.5594C17.7741 19.0172 18.3957 19.138 18.8535 18.8291C19.3113 18.5201 19.432 17.8986 19.1231 17.4408L17.326 14.7774C18.27 14.3198 19.154 13.7413 19.9542 13.0544L22.3774 14.9826C22.8095 15.3265 23.4386 15.2549 23.7825 14.8228C24.1264 14.3906 24.0549 13.7615 23.6227 13.4176L21.3673 11.6229C21.6488 11.2861 21.9137 10.9323 22.1603 10.5625L22.8321 9.55481Z" fill="current" />
</svg>
