<svg width="16" height="16" viewBox="0 0 16 16" fill="none" xmlns="http://www.w3.org/2000/svg">
<path d="M8 0C12.4179 0 16 3.60384 16 8.04865C16 12.0666 13.075 15.3964 9.25009 15.9999V10.3757L11.114 10.3757L11.4686 8.04852H9.25009V6.53865C9.25009 6.11494 9.38736 5.69777 9.77295 5.46642C9.96627 5.35047 10.2219 5.28124 10.5538 5.28124H11.5629L11.5631 3.30039C11.5631 3.30039 10.6474 3.14307 9.77212 3.14307C8.43564 3.14307 7.43749 3.73905 6.99784 4.84902C6.83633 5.25651 6.75012 5.73321 6.75012 6.27501V8.04858H4.71854L4.71832 10.3758H6.75012V16C2.92507 15.3955 0 12.0656 0 8.04865C0 3.60384 3.58206 0 8 0Z" fill="#1977F3"/>
</svg>