<svg width="24" height="24" viewBox="0 0 24 24" fill="current" xmlns="http://www.w3.org/2000/svg">
<path d="M11.121 3.45987C11.526 2.84671 12.474 2.84671 12.879 3.45987L15.5924 7.56787C15.7349 7.7836 15.9613 7.93842 16.2233 7.99932L21.2123 9.15903C21.957 9.33212 22.25 10.1808 21.7556 10.7329L18.4436 14.4315C18.2696 14.6257 18.1832 14.8762 18.2026 15.1296L18.5726 19.9543C18.6278 20.6745 17.8608 21.199 17.1503 20.927L12.3899 19.1049C12.1399 19.0092 11.8601 19.0092 11.6101 19.1049L6.84973 20.927C6.1392 21.199 5.37222 20.6745 5.42744 19.9543L5.79742 15.1296C5.81685 14.8762 5.73038 14.6257 5.55645 14.4315L2.2444 10.7329C1.75004 10.1808 2.043 9.33212 2.78766 9.15903L7.7767 7.99932C8.0387 7.93842 8.26507 7.7836 8.40757 7.56787L11.121 3.45987Z" fill="current" />
</svg>
