<svg width="24" height="24" viewBox="0 0 24 24" fill="current" xmlns="http://www.w3.org/2000/svg">
<path d="M20 9C20 8.44772 19.5523 8 19 8L16.7324 8C16.3866 7.4022 15.7403 7 15 7C14.2597 7 13.6134 7.4022 13.2676 8L5 8C4.44771 8 4 8.44771 4 9C4 9.55228 4.44771 10 5 10L13.2676 10C13.6134 10.5978 14.2597 11 15 11C15.7403 11 16.3866 10.5978 16.7324 10L19 10C19.5523 10 20 9.55228 20 9Z" fill="current" />
<path d="M4 15C4 15.5523 4.44772 16 5 16H7.26756C7.61337 16.5978 8.25972 17 9 17C9.74028 17 10.3866 16.5978 10.7324 16L19 16C19.5523 16 20 15.5523 20 15C20 14.4477 19.5523 14 19 14L10.7324 14C10.3866 13.4022 9.74028 13 9 13C8.25972 13 7.61337 13.4022 7.26756 14H5C4.44772 14 4 14.4477 4 15Z" fill="current" />
</svg>
