<svg width="24" height="24" viewBox="0 0 24 24" fill="current" xmlns="http://www.w3.org/2000/svg">
<path d="M12.7977 4.79314C13.3716 4.9023 13.8934 5.08169 14.3629 5.33132L12.6142 7.07999C12.2721 6.95081 11.8974 6.88096 11.4901 6.87044C10.7647 6.85738 10.1558 7.02395 9.6634 7.37017C9.17096 7.71639 8.92474 8.15079 8.92474 8.67338C8.92474 9.06532 9.08113 9.39848 9.39389 9.67284C9.499 9.76097 9.62393 9.84521 9.76867 9.92556L8.01133 11.6829C7.02983 11.0083 6.53908 10.0443 6.53908 8.79096C6.53908 7.69352 6.88179 6.78879 7.56721 6.07676C8.25929 5.35819 9.20091 4.91399 10.3921 4.74415V4C10.3921 3.44772 10.8398 3 11.3921 3H11.7977C12.35 3 12.7977 3.44772 12.7977 4V4.79314Z" fill="current" />
<path d="M13.0517 13.4626L14.8849 11.6293C15.4291 11.8965 15.858 12.2045 16.1716 12.5536C16.7239 13.1546 17.0001 13.9516 17.0001 14.9445C17.0001 16.0942 16.6174 17.0544 15.8521 17.8253C15.0935 18.5961 14.0754 19.0762 12.7977 19.2657V20C12.7977 20.5523 12.35 21 11.7977 21H11.3921C10.8398 21 10.3921 20.5523 10.3921 20V19.2363C9.54241 19.0863 8.79717 18.7935 8.15637 18.3579L9.88413 16.6301C10.4321 16.9631 11.0672 17.1296 11.7895 17.1296C12.6147 17.1296 13.2935 16.9369 13.8258 16.5514C14.3582 16.166 14.6244 15.6826 14.6244 15.1013C14.6244 14.6962 14.4979 14.3631 14.2451 14.1018C13.9959 13.8443 13.5981 13.6312 13.0517 13.4626Z" fill="current" />
<path d="M19.3751 3.8326C18.9846 3.44207 18.3514 3.44207 17.9609 3.83259L3.82756 17.9659C3.43704 18.3564 3.43704 18.9896 3.82756 19.3801C4.21809 19.7707 4.85125 19.7707 5.24177 19.3801L19.3751 5.24681C19.7656 4.85628 19.7656 4.22312 19.3751 3.8326Z" fill="current" />
</svg>
