<svg width="16" height="16" viewBox="0 0 16 16" fill="none" xmlns="http://www.w3.org/2000/svg">
<path d="M8.14314 3.70664C9.48443 3.70664 10.3892 4.27445 10.9051 4.7489L12.921 2.82C11.6829 1.69219 10.0717 1 8.14314 1C5.34952 1 2.9368 2.57109 1.76221 4.85774L4.0717 6.61554C4.65109 4.92774 6.25426 3.70664 8.14314 3.70664Z" fill="#EA4335"/>
<path d="M15.0002 8.15546C15.0002 7.57991 14.9526 7.15991 14.8494 6.72437H8.14307V9.3221H12.0796C12.0002 9.96765 11.5717 10.9399 10.6192 11.5932L12.8732 13.3044C14.2225 12.0832 15.0002 10.2866 15.0002 8.15546Z" fill="#4285F4"/>
<path d="M4.07941 9.38438C3.92858 8.94883 3.84129 8.48212 3.84129 7.99992C3.84129 7.51767 3.92859 7.05102 4.07144 6.61547L1.76189 4.85767C1.27782 5.80657 1 6.87212 1 7.99992C1 9.12766 1.27782 10.1933 1.76189 11.1421L4.07941 9.38438Z" fill="#FBBC05"/>
<path d="M8.14306 15.0001C10.0716 15.0001 11.6907 14.3779 12.8732 13.3045L10.6192 11.5934C10.0161 12.0056 9.20652 12.2934 8.14306 12.2934C6.25418 12.2934 4.65101 11.0723 4.07958 9.38452L1.77002 11.1423C2.94461 13.429 5.34936 15.0001 8.14306 15.0001Z" fill="#34A853"/>
</svg>
