<svg width="24" height="24" viewBox="0 0 24 24" fill="current" xmlns="http://www.w3.org/2000/svg">
<path fill-rule="evenodd" clip-rule="evenodd" d="M11.121 3.45987L8.40757 7.56787C8.26507 7.7836 8.0387 7.93842 7.7767 7.99932L2.78766 9.15903C2.043 9.33212 1.75004 10.1808 2.2444 10.7329L5.55645 14.4315C5.73038 14.6257 5.81685 14.8762 5.79742 15.1296L5.42744 19.9543C5.37222 20.6745 6.1392 21.199 6.84973 20.927L11.6101 19.1049C11.8601 19.0092 12.1399 19.0092 12.3899 19.1049L17.1503 20.927C17.8608 21.199 18.6278 20.6745 18.5726 19.9543L18.2026 15.1296C18.1832 14.8762 18.2696 14.6257 18.4436 14.4315L21.7556 10.7329C22.25 10.1808 21.957 9.33212 21.2123 9.15903L16.2233 7.99932C15.9613 7.93842 15.7349 7.7836 15.5924 7.56787L12.879 3.45987C12.474 2.84671 11.526 2.84671 11.121 3.45987ZM4.91552 10.7177L7.04637 13.0973L5.55645 14.4315L7.04638 13.0973C7.57342 13.6858 7.8539 14.4697 7.79156 15.2825L7.5433 18.52L10.8951 17.237L10.8951 17.237C11.6055 16.9651 12.3945 16.9651 13.1049 17.237L13.1049 17.237L16.4567 18.52L16.2084 15.2825L16.2084 15.2825C16.1461 14.4697 16.4266 13.6858 16.9536 13.0973L16.9536 13.0973L19.0845 10.7177L15.7705 9.94738C15.0321 9.77575 14.3606 9.33176 13.9236 8.67016L12 5.75788L10.0764 8.67015C9.63938 9.33176 8.96789 9.77575 8.22953 9.94738L4.91552 10.7177Z" fill="current"/>
<path d="M6.84973 20.927L11.6101 19.1049C11.7351 19.057 11.8675 19.0331 12 19.0331V3C11.6617 3 11.3235 3.15329 11.121 3.45987L8.40757 7.56787C8.26507 7.7836 8.0387 7.93842 7.7767 7.99932L2.78766 9.15903C2.043 9.33212 1.75004 10.1808 2.2444 10.7329L5.55645 14.4315C5.73038 14.6257 5.81685 14.8762 5.79742 15.1296L5.42744 19.9543C5.37222 20.6745 6.1392 21.199 6.84973 20.927Z" fill="current"/>
</svg>
