<svg width="24" height="24" viewBox="0 0 24 24" fill="current" xmlns="http://www.w3.org/2000/svg">
<path fill-rule="evenodd" clip-rule="evenodd" d="M12 21C12 21 2.85664 17.7967 2.08209 11.5722C1.46219 6.59048 4.45723 4 7.55658 4C10.0361 4 12 5.7 12 5.7C12 5.7 13.9639 4 16.4434 4C19.5428 4 22.5378 6.59048 21.9179 11.5722C21.1763 17.5326 12 21 12 21ZM11.9768 18.8411C11.8065 18.7692 11.6094 18.6833 11.3911 18.5834C10.5871 18.2157 9.51732 17.6695 8.43628 16.9531C6.16804 15.45 4.34085 13.5277 4.06678 11.3252C3.81236 9.28061 4.31803 7.96989 4.96101 7.19838C5.61713 6.41109 6.56424 6 7.55658 6C8.35315 6 9.1344 6.27907 9.77063 6.61668C10.0786 6.78011 10.326 6.94315 10.491 7.06119C10.5729 7.11972 10.6325 7.16576 10.6671 7.19326C10.6836 7.20632 10.6942 7.21507 10.6988 7.21885L12 8.3452L13.3012 7.21885C13.3058 7.21507 13.3164 7.20632 13.3329 7.19326C13.3675 7.16575 13.4272 7.11972 13.509 7.06119C13.6741 6.94315 13.9214 6.78011 14.2294 6.61668C14.8656 6.27907 15.6469 6 16.4434 6C17.4358 6 18.3829 6.41109 19.039 7.19837C19.682 7.96989 20.1876 9.28062 19.9332 11.3252C19.6769 13.3854 17.867 15.3068 15.5615 16.8638C14.4713 17.6001 13.3919 18.1726 12.5804 18.5618C12.3549 18.67 12.1517 18.7632 11.9768 18.8411ZM13.3006 7.21938C13.2994 7.22041 13.2987 7.22094 13.2987 7.22094L13.2995 7.22026L13.3006 7.21938ZM10.7005 7.22026L10.6994 7.21938C10.7015 7.2211 10.7019 7.22142 10.7005 7.22026Z" fill="current"/>
</svg>
