<svg width="24" height="24" viewBox="0 0 24 24" fill="current" xmlns="http://www.w3.org/2000/svg">
<path d="M12 8C12.5523 8 13 7.55228 13 7L13 3C13 2.44772 12.5523 2 12 2C11.4477 2 11 2.44772 11 3V7C11 7.55228 11.4477 8 12 8Z" fill="current"/>
<path d="M12 22C12.5523 22 13 21.5523 13 21L13 17C13 16.4477 12.5523 16 12 16C11.4477 16 11 16.4477 11 17V21C11 21.5523 11.4477 22 12 22Z" fill="current"/>
<path d="M8 4C8.55228 4 9 4.44772 9 5C9 5.55229 8.55228 6 8 6H7V11L17 11V6H16C15.4477 6 15 5.55229 15 5C15 4.44772 15.4477 4 16 4H20C20.5523 4 21 4.44772 21 5C21 5.55229 20.5523 6 20 6H19V18H20C20.5523 18 21 18.4477 21 19C21 19.5523 20.5523 20 20 20H16C15.4477 20 15 19.5523 15 19C15 18.4477 15.4477 18 16 18H17V13H7V18H8C8.55228 18 9 18.4477 9 19C9 19.5523 8.55228 20 8 20H4C3.44772 20 3 19.5523 3 19C3 18.4477 3.44772 18 4 18H5V6H4C3.44772 6 3 5.55228 3 5C3 4.44772 3.44772 4 4 4H8Z" fill="current" />
</svg>
