<svg width="24" height="24" viewBox="0 0 24 24" fill="current" xmlns="http://www.w3.org/2000/svg">
<path d="M17 8C17 9.10457 16.1046 10 15 10C13.8954 10 13 9.10457 13 8C13 6.89543 13.8954 6 15 6C16.1046 6 17 6.89543 17 8Z" fill="current" />
<path fill-rule="evenodd" clip-rule="evenodd" d="M7 2C4.23858 2 2 4.23858 2 7V17C2 19.7614 4.23858 22 7 22H17C19.7614 22 22 19.7614 22 17V7C22 4.23858 19.7614 2 17 2H7ZM17 4H7C5.34315 4 4 5.34315 4 7V13.5793L6.59081 11.7658C7.30285 11.2673 8.15098 11 9.02014 11C9.85648 11 10.6741 11.2476 11.37 11.7115L15.7226 14.6132C16.1009 14.8654 16.5454 15 17 15C17.4546 15 17.8991 14.8654 18.2774 14.6132L20 13.4648V7C20 5.34315 18.6569 4 17 4ZM4 17V16.0207L7.73773 13.4042C8.11361 13.1411 8.56132 13 9.02014 13C9.46163 13 9.89325 13.1307 10.2606 13.3756L14.6132 16.2774C15.3201 16.7486 16.1505 17 17 17C17.8495 17 18.6799 16.7486 19.3868 16.2773L20 15.8685V17C20 18.6569 18.6569 20 17 20H7C5.34315 20 4 18.6569 4 17Z" fill="current" />
</svg>
