<svg width="24" height="24" viewBox="0 0 24 24" fill="current" xmlns="http://www.w3.org/2000/svg">
<path d="M7.46875 1C3.91797 1 1 3.91406 1 7.46875V16.5312C1 20.082 3.91406 23 7.46875 23H16.5312C20.082 23 23 20.0859 23 16.5312V7.46875C23 3.91797 20.0859 1 16.5312 1H7.46875ZM7.46875 3H16.5312C19.0039 3 21 4.99609 21 7.46875V16.5312C21 19.0039 19.0039 21 16.5312 21H7.46875C4.99609 21 3 19.0039 3 16.5312V7.46875C3 4.99609 4.99609 3 7.46875 3ZM17.9062 5.1875C17.4023 5.1875 17 5.58984 17 6.09375C17 6.59766 17.4023 7 17.9062 7C18.4102 7 18.8125 6.59766 18.8125 6.09375C18.8125 5.58984 18.4102 5.1875 17.9062 5.1875ZM12 6C8.69922 6 6 8.69922 6 12C6 15.3008 8.69922 18 12 18C15.3008 18 18 15.3008 18 12C18 8.69922 15.3008 6 12 6ZM12 8C14.2227 8 16 9.77734 16 12C16 14.2227 14.2227 16 12 16C9.77734 16 8 14.2227 8 12C8 9.77734 9.77734 8 12 8Z" fill="current"/>
</svg>
