<svg width="31" height="26" viewBox="0 0 31 26" fill="current" xmlns="http://www.w3.org/2000/svg">
<path fill-rule="evenodd" clip-rule="evenodd" d="M8.55517 4.91055C7.22841 4.12947 5.55365 5.07756 5.54059 6.6171L5.4908 12.4892C5.47774 14.0287 7.13619 15.0051 8.47601 14.2466L14.1832 11.0158C14.1799 12.6613 12.8769 17.0484 6.94477 20.0977C6.45358 20.3502 6.26007 20.9531 6.51256 21.4443C6.76504 21.9355 7.36792 22.129 7.85911 21.8765C11.8382 19.8311 14.056 17.164 15.1832 14.8348C16.3104 17.164 18.5281 19.8311 22.5073 21.8765C22.9985 22.129 23.6013 21.9355 23.8538 21.4443C24.1063 20.9531 23.9128 20.3502 23.4216 20.0977C17.5311 17.0698 16.205 12.7228 16.1834 11.0508L21.8287 14.2466C23.1686 15.0051 24.827 14.0287 24.814 12.4892L24.7642 6.6171C24.7511 5.07756 23.0763 4.12947 21.7496 4.91055L15.1965 8.76843C15.1814 8.77729 15.1667 8.78645 15.1524 8.79588C15.138 8.78645 15.1233 8.77729 15.1083 8.76843L8.55517 4.91055ZM7.54052 6.63406L7.49073 12.5062L12.601 9.61323L7.54052 6.63406ZM22.7642 6.63406L22.814 12.5062L17.7037 9.61323L22.7642 6.63406Z" fill="current" />
</svg>
