<svg width="16" height="16" viewBox="0 0 16 16" fill="none" xmlns="http://www.w3.org/2000/svg">
<path fill-rule="evenodd" clip-rule="evenodd" d="M6.16245 5.69228H8.71941V7.00131L8.75637 7.00139C9.11247 6.36341 9.98319 5.69236 11.2815 5.69236C13.9815 5.69228 14.4809 7.37028 14.4809 9.55312V13.9997L11.8143 13.9998V10.058C11.8143 9.11841 11.7947 7.90881 10.4278 7.90881C9.03933 7.90881 8.82659 8.93166 8.82659 9.98962V13.9998H6.16245V5.69236V5.69228ZM4.31383 3.38467C4.31383 4.14904 3.69269 4.76931 2.9273 4.76931C2.1619 4.76931 1.54053 4.149 1.54053 3.38467C1.54053 2.6203 2.1619 2 2.9273 2C3.69269 2 4.31383 2.6203 4.31383 3.38467ZM1.54053 5.69228H4.31383V13.9997H1.54053V5.69228Z" fill="#0077B5"/>
</svg>
