<svg width="20" height="15" viewBox="0 0 20 15" fill="current" xmlns="http://www.w3.org/2000/svg">
<path d="M0 10.9188C0.0192153 9.69942 0.391088 8.72098 1.17778 7.92465C2.72405 6.35802 4.27258 4.79251 5.8471 3.25302C6.36266 2.74056 7.00353 2.37241 7.70572 2.18533C8.40792 1.99825 9.14687 1.99878 9.84879 2.18687C10.5507 2.37496 11.1911 2.74403 11.7059 3.25722C12.2207 3.77042 12.592 4.40979 12.7827 5.11149C13.2088 6.62836 12.8324 7.97782 11.7654 9.13272C11.6839 9.23022 11.583 9.30963 11.4691 9.36589C11.3552 9.42214 11.2308 9.454 11.1039 9.45943C10.977 9.46486 10.8504 9.44374 10.7321 9.39742C10.6138 9.35109 10.5065 9.28059 10.4169 9.19041C10.0417 8.82731 10.0462 8.26513 10.4271 7.85339C11.4749 6.72225 11.2421 4.99725 9.93657 4.22467C9.5222 3.98459 9.04392 3.87825 8.56695 3.92015C8.08997 3.96205 7.63753 4.15016 7.27129 4.45882C7.20574 4.51538 7.14244 4.57193 7.08027 4.63641C5.57319 6.14461 4.06837 7.6528 2.56581 9.161C1.41063 10.325 1.71242 12.2015 3.15922 12.9164C3.58276 13.1256 4.06035 13.1994 4.52722 13.1278C4.99409 13.0561 5.42765 12.8426 5.76911 12.516C5.93351 12.3414 6.15472 12.2311 6.39304 12.2049C6.58484 12.1882 6.77708 12.2317 6.943 12.3294C7.10893 12.4271 7.24027 12.5742 7.31877 12.7501C7.39858 12.9219 7.42254 13.1143 7.38725 13.3004C7.35197 13.4865 7.25922 13.6568 7.12209 13.7874C6.54193 14.3812 5.79127 14.7794 4.9745 14.9265C2.63928 15.3495 0.527855 13.9084 0.0644269 11.5783C0.0314693 11.3597 0.00996488 11.1396 0 10.9188Z" fill="current"/>
<path d="M11.4414 12.9545C8.85843 12.9636 7.06033 11.3479 6.8432 9.21821C6.71201 7.93428 7.10217 6.82472 7.97408 5.88612C8.37668 5.45248 8.94438 5.42757 9.33793 5.80912C9.73147 6.19068 9.7066 6.73527 9.31644 7.16778C8.68428 7.86409 8.49203 8.67135 8.80754 9.55674C9.12306 10.4421 9.77219 10.9516 10.6916 11.0784C11.4606 11.1849 12.1267 10.929 12.6763 10.3753C13.3639 9.68317 14.053 8.99328 14.7436 8.30565C15.5612 7.48819 16.3822 6.67527 17.1931 5.85102C18.3149 4.70975 18.0695 2.89934 16.6977 2.14189C15.8009 1.64712 14.7424 1.79317 13.9587 2.51892C13.4905 2.95256 12.8278 2.88576 12.501 2.37287C12.383 2.19238 12.3331 1.97563 12.3605 1.76163C12.3879 1.54764 12.4906 1.35045 12.6503 1.20556C13.5889 0.299788 14.7062 -0.111206 16.0045 0.0257919C16.871 0.102578 17.6908 0.453138 18.3453 1.02684C18.9999 1.60055 19.4553 2.3677 19.6459 3.21749C19.9762 4.63615 19.6674 5.94159 18.6587 6.99342C17.0754 8.64531 15.4424 10.2542 13.8061 11.8563C13.0371 12.6148 12.0713 12.9477 11.4414 12.9545Z" fill="current"/>
</svg>
