<svg width="24" height="24" viewBox="0 0 24 24" fill="current" xmlns="http://www.w3.org/2000/svg">
<path d="M9.20256 14.525C10.8172 15.2286 12.7292 15.1739 14.3668 14.2051L18.1228 11.9831C20.8824 10.3506 21.8101 6.75642 20.2311 3.95412C18.6443 1.13812 15.1082 0.153884 12.3338 1.79514L8.57784 4.01706C7.36578 4.73408 6.50697 5.83227 6.05943 7.06952C5.87157 7.58887 6.14029 8.16218 6.65965 8.35005C7.179 8.53791 7.75231 8.26918 7.94017 7.74983C8.23833 6.92556 8.80478 6.20656 9.59614 5.73841L13.3521 3.51649C15.1413 2.45805 17.4406 3.07593 18.4886 4.93593C19.5444 6.80964 18.9085 9.1946 17.1045 10.2618L13.3485 12.4837C12.2855 13.1126 11.0513 13.149 10.0014 12.6915C9.49513 12.4709 8.90585 12.7025 8.68524 13.2088C8.46464 13.7151 8.69625 14.3044 9.20256 14.525Z" fill="current" />
<path d="M13.797 8.47517C12.1824 7.77164 10.2704 7.82635 8.63275 8.79514L4.8768 11.0171C2.1172 12.6496 1.18953 16.2438 2.76854 19.0461C4.35527 21.8621 7.89142 22.8463 10.6658 21.2051L14.4218 18.9831C15.6338 18.2661 16.4926 17.1679 16.9402 15.9307C17.128 15.4113 16.8593 14.838 16.34 14.6502C15.8206 14.4623 15.2473 14.731 15.0594 15.2504C14.7613 16.0746 14.1948 16.7936 13.4035 17.2618L9.6475 19.4837C7.8583 20.5421 5.55902 19.9243 4.51096 18.0643C3.45519 16.1906 4.09112 13.8056 5.8951 12.7384L9.65106 10.5165C10.7141 9.88763 11.9483 9.85124 12.9982 10.3087C13.5045 10.5293 14.0938 10.2977 14.3144 9.79137C14.535 9.28506 14.3034 8.69578 13.797 8.47517Z" fill="current" />
</svg>
