<svg width="24" height="24" viewBox="0 0 24 24" fill="current" xmlns="http://www.w3.org/2000/svg">
<path fill-rule="evenodd" clip-rule="evenodd" d="M13.8117 5.23852C12.399 4.85997 10.9031 4.93346 9.53425 5.44866C8.16539 5.96386 6.99229 6.8949 6.17971 8.11101C5.36714 9.32712 4.95589 10.7672 5.00375 12.229C5.05161 13.6909 5.55615 15.101 6.44653 16.2613C7.33691 17.4217 8.56839 18.274 9.96801 18.6986C11.3676 19.1232 12.8651 19.0987 14.2501 18.6285C15.6351 18.1584 16.838 17.2662 17.6899 16.0773C18.5419 14.8885 19 13.4626 19 12C19 11.1716 19.6716 10.5 20.5 10.5C21.3284 10.5 22 11.1716 22 12C22 14.0894 21.3455 16.1264 20.1285 17.8248C18.9114 19.5232 17.1929 20.7977 15.2144 21.4693C13.2358 22.1409 11.0966 22.1759 9.09716 21.5694C7.09769 20.9629 5.33844 19.7453 4.06647 18.0876C2.7945 16.43 2.07372 14.4155 2.00536 12.3272C1.93699 10.2389 2.52448 8.1816 3.68531 6.4443C4.84613 4.707 6.52199 3.37695 8.4775 2.64094C10.433 1.90494 12.57 1.79996 14.5882 2.34074C15.3884 2.55516 15.8633 3.37766 15.6489 4.17786C15.4344 4.97806 14.6119 5.45293 13.8117 5.23852Z" fill="current"/>
</svg>
