<svg width="24" height="24" viewBox="0 0 24 24" fill="current" xmlns="http://www.w3.org/2000/svg">
<path d="M12.0001 0C11.6838 0 11.3701 0.0122718 11.0594 0.0364097C10.1975 0.103365 9.55314 0.856311 9.6201 1.71816C9.68705 2.58001 10.44 3.2244 11.3019 3.15745C11.532 3.13957 11.7648 3.13044 12.0001 3.13044C12.2354 3.13044 12.4683 3.13957 12.6984 3.15745C13.5603 3.2244 14.3132 2.58001 14.3802 1.71816C14.4471 0.856311 13.8027 0.103365 12.9409 0.0364097C12.6302 0.0122718 12.3164 0 12.0001 0Z" fill="current" />
<path d="M19.7942 2.87541C19.1371 2.31369 18.1491 2.39099 17.5873 3.04807C17.0256 3.70514 17.1029 4.69316 17.76 5.25488C17.9067 5.38031 18.0493 5.51045 18.1875 5.64505C19.7347 7.15169 20.8697 9.58288 20.8697 12C20.8697 12.2353 20.8606 12.4682 20.8427 12.6983C20.7758 13.5602 21.4202 14.3131 22.282 14.3801C23.1439 14.447 23.8968 13.8026 23.9638 12.9408C23.9748 12.798 23.9834 12.6545 23.9895 12.5104L23.9998 12.5001C23.9998 12.4083 23.9993 12.3173 23.9981 12.2272C23.9995 12.1516 24.0002 12.0759 24.0002 12C24.0002 11.6837 23.9879 11.37 23.9638 11.0593C23.9569 10.9709 23.9428 10.8848 23.9221 10.8015C23.8004 9.53099 23.5 7 20.4708 3.50011C20.2534 3.28341 20.0276 3.07501 19.7942 2.87541Z" fill="current" />
<path d="M6.41292 3.04807C6.97464 3.70514 6.89734 4.69316 6.24027 5.25488C5.88674 5.55711 5.55721 5.88664 5.25498 6.24017C4.69326 6.89724 3.70524 6.97454 3.04817 6.41282C2.3911 5.8511 2.3138 4.86308 2.87552 4.20601C3.28368 3.72856 3.72866 3.28358 4.20611 2.87541C4.86318 2.3137 5.8512 2.39099 6.41292 3.04807Z" fill="current" />
<path d="M3.15745 11.3018C3.2244 10.4399 2.58001 9.68697 1.71816 9.62001C0.856311 9.55306 0.103365 10.1974 0.0364097 11.0593C0.0122718 11.37 0 11.6837 0 12C0 12.3163 0.0122718 12.6301 0.0364097 12.9408C0.103365 13.8026 0.856311 14.447 1.71816 14.3801C2.58001 14.3131 3.2244 13.5602 3.15745 12.6983C3.13957 12.4682 3.13044 12.2354 3.13044 12C3.13044 11.7647 3.13957 11.5319 3.15745 11.3018Z" fill="current" />
<path d="M5.25498 17.7598C4.69326 17.1028 3.70524 17.0255 3.04817 17.5872C2.3911 18.1489 2.3138 19.1369 2.87552 19.794C3.28368 20.2714 3.72866 20.7164 4.20611 21.1246C4.86318 21.6863 5.8512 21.609 6.41292 20.9519C6.97464 20.2949 6.89734 19.3068 6.24027 18.7451C5.88674 18.4429 5.55721 18.1134 5.25498 17.7598Z" fill="current" />
<path d="M9.62001 22.282C9.68697 21.4201 10.4399 20.7757 11.3018 20.8427C11.5319 20.8605 11.7647 20.8697 12 20.8697C12.2354 20.8697 12.4682 20.8605 12.6983 20.8427C13.5602 20.7757 14.3131 21.4201 14.3801 22.282C14.447 23.1438 13.8026 23.8968 12.9408 23.9637C12.6301 23.9878 12.3163 24.0001 12 24.0001C11.6837 24.0001 11.37 23.9878 11.0593 23.9637C10.1974 23.8968 9.55306 23.1438 9.62001 22.282Z" fill="current" />
</svg>
