<svg width="24" height="24" viewBox="0 0 24 24" fill="current" xmlns="http://www.w3.org/2000/svg">
<path d="M7 3C4.79086 3 3 4.79086 3 7V17C3 19.2091 4.79086 21 7 21H14.7534C15.3931 21 15.8684 20.4076 15.7296 19.7831L15.2945 17.8254C15.1167 17.0253 14.4687 16.4146 13.6595 16.2846L9.68264 15.6454C8.71302 15.4896 8 14.6528 8 13.6708V10.3292C8 9.34717 8.71302 8.51041 9.68264 8.35458L13.6595 7.71544C14.4687 7.58538 15.1167 6.97474 15.2945 6.17464L15.7296 4.21693C15.8684 3.59242 15.3931 3 14.7534 3H7Z" fill="current" />
<path d="M20.8137 11.4266L18.5 8H16.5L18.5 11.0079H11C10.4477 11.0079 10 11.4556 10 12.0079C10 12.5602 10.4477 13.0079 11 13.0079H18.5L16.5 16H18.5L20.8137 12.5891C21.0621 12.2414 21.0621 11.7743 20.8137 11.4266Z" fill="current" />
</svg>
