<svg width="24" height="24" viewBox="0 0 24 24" fill="current" xmlns="http://www.w3.org/2000/svg">
<path d="M7.5145 9.14251C7.04092 8.85836 6.42666 9.01192 6.14251 9.4855C5.85836 9.95908 6.01192 10.5733 6.4855 10.8575L10.971 13.5488C11.6044 13.9288 12.3956 13.9288 13.029 13.5488L17.5145 10.8575C17.9881 10.5733 18.1416 9.95908 17.8575 9.4855C17.5733 9.01192 16.9591 8.85836 16.4855 9.14251L12 11.8338L7.5145 9.14251Z" fill="current" />
<path fill-rule="evenodd" clip-rule="evenodd" d="M2 8C2 5.79086 3.79086 4 6 4H18C20.2091 4 22 5.79086 22 8V16C22 18.2091 20.2091 20 18 20H6C3.79086 20 2 18.2091 2 16V8ZM6 6H18C19.1046 6 20 6.89543 20 8V16C20 17.1046 19.1046 18 18 18H6C4.89543 18 4 17.1046 4 16V8C4 6.89543 4.89543 6 6 6Z" fill="current" />
</svg>
