<svg width="24" height="24" viewBox="0 0 24 24" fill="current" xmlns="http://www.w3.org/2000/svg">
<path d="M2 6.49927C1.17157 6.49927 0.5 7.17084 0.5 7.99927C0.5 8.82769 1.17157 9.49927 2 9.49927H22C22.8284 9.49927 23.5 8.82769 23.5 7.99927C23.5 7.17084 22.8284 6.49927 22 6.49927H2Z" fill="current" />
<path d="M2 14.4993C1.17157 14.4993 0.5 15.1708 0.5 15.9993C0.5 16.8277 1.17157 17.4993 2 17.4993L16 17.4993C16.8284 17.4993 17.5 16.8277 17.5 15.9993C17.5 15.1708 16.8284 14.4993 16 14.4993L2 14.4993Z" fill="current" />
</svg>
