<svg width="22" height="16" viewBox="0 0 22 16" fill="current" xmlns="http://www.w3.org/2000/svg">
<path d="M22 15C22 15.5523 21.5523 16 21 16L1.00003 16C0.447746 16 3.04693e-05 15.5523 3.05176e-05 15C3.05659e-05 14.4477 0.447746 14 1.00003 14L21 14C21.5523 14 22 14.4477 22 15Z" fill="current" />
<path d="M22 8C22 8.55229 21.5523 9 21 9L1 9C0.447715 9 1.13243e-08 8.55228 5.96047e-08 8C1.07885e-07 7.44771 0.447715 7 1 7L21 7C21.5523 7 22 7.44772 22 8Z" fill="current" />
<path d="M22 1C22 1.55229 21.5523 2 21 2L1 2C0.447716 2 -4.82803e-08 1.55228 0 0.999999C4.82803e-08 0.447715 0.447715 -4.82842e-08 1 0L21 1.2517e-06C21.5523 1.29998e-06 22 0.447716 22 1Z" fill="current" />
</svg>
