<svg width="24" height="24" viewBox="0 0 24 24" fill="current" xmlns="http://www.w3.org/2000/svg">
<path d="M2 6.49927C1.17157 6.49927 0.5 7.17084 0.5 7.99927C0.5 8.82769 1.17157 9.49927 2 9.49927H22C22.8284 9.49927 23.5 8.82769 23.5 7.99927C23.5 7.17084 22.8284 6.49927 22 6.49927H2Z" fill="current" />
<path d="M8 14.4993C7.17157 14.4993 6.5 15.1708 6.5 15.9993C6.5 16.8277 7.17157 17.4993 8 17.4993L22 17.4993C22.8284 17.4993 23.5 16.8277 23.5 15.9993C23.5 15.1708 22.8284 14.4993 22 14.4993L8 14.4993Z" fill="current" />
</svg>
