<svg width="16" height="18" fill="none" xmlns="http://www.w3.org/2000/svg">
  <path d="M6.243 17.229c.832 0 1.665-.02 2.497.01.46.01.627-.176.578-.605-.04-.37-.05-.741-.098-1.111-.059-.45.147-.634.578-.634.196 0 .391.01.587 0 .549-.02 1.117.01 1.655-.069.706-.097.99-.448 1-1.15.01-.468-.01-.946-.03-1.414-.01-.302-.176-.712-.03-.887.147-.186.578-.147.882-.215.666-.146.823-.439.539-1.043a8.809 8.809 0 0 0-.637-1.15c-.685-1.005-1.116-2.058-1.058-3.307.06-1.287-.5-2.36-1.43-3.247C10.16 1.354 8.79.906 7.292.78 5.009.594 2.737 1.832 1.767 3.831.768 5.918.758 8.063 1.659 10.16c.92 2.146 1.665 4.3 1.577 6.67-.01.332.186.41.47.41.842-.02 1.694-.01 2.537-.01Z" stroke="#57606A" stroke-width="1.5" stroke-miterlimit="10"/>
  <mask id="a" maskUnits="userSpaceOnUse" x="1.766" y="2.115" width="9" height="10" fill="#000">
    <path fill="#fff" d="M1.766 2.115h9v10h-9z"/>
    <path d="M7.044 3.115a1.284 1.284 0 0 1 1.282 1.207l.002.075h.964c.371 0 .68.27.74.626l.007.063.002.061v1.607h-.856a.642.642 0 0 0-.633.53l-.007.057-.002.055a.642.642 0 0 0 .531.634l.057.006.054.003h.856v1.606a.75.75 0 0 1-.687.747l-.061.003h-.965l-.001.074a1.285 1.285 0 0 1-1.13 1.2l-.077.006-.076.003a1.285 1.285 0 0 1-1.283-1.208l-.002-.075h-.964a.75.75 0 0 1-.739-.625l-.008-.063-.002-.062v-.964l-.07-.003a1.285 1.285 0 0 1-1.2-1.13l-.008-.076-.002-.076a1.285 1.285 0 0 1 1.21-1.283l.07-.002v-.964c0-.371.27-.68.625-.739l.063-.008.061-.002h.963l.003-.074a1.285 1.285 0 0 1 1.13-1.2l.077-.007.076-.002Zm0 .642a.642.642 0 0 0-.64.58l-.003.063v.64H4.794a.107.107 0 0 0-.104.083l-.003.024v1.607H4.05a.642.642 0 0 0-.062 1.282l.062.003h.637v1.606a.107.107 0 0 0 .083.104l.025.003H6.4v.64a.642.642 0 0 0 1.282.063l.003-.061v-.642h1.606a.107.107 0 0 0 .104-.082l.003-.024V8.68h-.224l-.077-.003a1.286 1.286 0 0 1-1.195-1.216L7.9 7.385l.003-.077A1.285 1.285 0 0 1 9.11 6.113l.074-.002h.213v-.964a.107.107 0 0 0-.055-.094l-.027-.01-.024-.003H7.685V4.4a.642.642 0 0 0-.642-.643Z"/>
  </mask>
  <path d="M7.044 3.115a1.284 1.284 0 0 1 1.282 1.207l.002.075h.964c.371 0 .68.27.74.626l.007.063.002.061v1.607h-.856a.642.642 0 0 0-.633.53l-.007.057-.002.055a.642.642 0 0 0 .531.634l.057.006.054.003h.856v1.606a.75.75 0 0 1-.687.747l-.061.003h-.965l-.001.074a1.285 1.285 0 0 1-1.13 1.2l-.077.006-.076.003a1.285 1.285 0 0 1-1.283-1.208l-.002-.075h-.964a.75.75 0 0 1-.739-.625l-.008-.063-.002-.062v-.964l-.07-.003a1.285 1.285 0 0 1-1.2-1.13l-.008-.076-.002-.076a1.285 1.285 0 0 1 1.21-1.283l.07-.002v-.964c0-.371.27-.68.625-.739l.063-.008.061-.002h.963l.003-.074a1.285 1.285 0 0 1 1.13-1.2l.077-.007.076-.002Zm0 .642a.642.642 0 0 0-.64.58l-.003.063v.64H4.794a.107.107 0 0 0-.104.083l-.003.024v1.607H4.05a.642.642 0 0 0-.062 1.282l.062.003h.637v1.606a.107.107 0 0 0 .083.104l.025.003H6.4v.64a.642.642 0 0 0 1.282.063l.003-.061v-.642h1.606a.107.107 0 0 0 .104-.082l.003-.024V8.68h-.224l-.077-.003a1.286 1.286 0 0 1-1.195-1.216L7.9 7.385l.003-.077A1.285 1.285 0 0 1 9.11 6.113l.074-.002h.213v-.964a.107.107 0 0 0-.055-.094l-.027-.01-.024-.003H7.685V4.4a.642.642 0 0 0-.642-.643Z" fill="#57606A"/>
  <path d="M7.044 3.115a1.284 1.284 0 0 1 1.282 1.207l.002.075h.964c.371 0 .68.27.74.626l.007.063.002.061v1.607h-.856a.642.642 0 0 0-.633.53l-.007.057-.002.055a.642.642 0 0 0 .531.634l.057.006.054.003h.856v1.606a.75.75 0 0 1-.687.747l-.061.003h-.965l-.001.074a1.285 1.285 0 0 1-1.13 1.2l-.077.006-.076.003a1.285 1.285 0 0 1-1.283-1.208l-.002-.075h-.964a.75.75 0 0 1-.739-.625l-.008-.063-.002-.062v-.964l-.07-.003a1.285 1.285 0 0 1-1.2-1.13l-.008-.076-.002-.076a1.285 1.285 0 0 1 1.21-1.283l.07-.002v-.964c0-.371.27-.68.625-.739l.063-.008.061-.002h.963l.003-.074a1.285 1.285 0 0 1 1.13-1.2l.077-.007.076-.002Zm0 .642a.642.642 0 0 0-.64.58l-.003.063v.64H4.794a.107.107 0 0 0-.104.083l-.003.024v1.607H4.05a.642.642 0 0 0-.062 1.282l.062.003h.637v1.606a.107.107 0 0 0 .083.104l.025.003H6.4v.64a.642.642 0 0 0 1.282.063l.003-.061v-.642h1.606a.107.107 0 0 0 .104-.082l.003-.024V8.68h-.224l-.077-.003a1.286 1.286 0 0 1-1.195-1.216L7.9 7.385l.003-.077A1.285 1.285 0 0 1 9.11 6.113l.074-.002h.213v-.964a.107.107 0 0 0-.055-.094l-.027-.01-.024-.003H7.685V4.4a.642.642 0 0 0-.642-.643Z" stroke="#57606A" stroke-width=".4" mask="url(#a)"/>
</svg>
