<svg width="24" height="24" viewBox="0 0 24 24" fill="current" xmlns="http://www.w3.org/2000/svg">
<path fill-rule="evenodd" clip-rule="evenodd" d="M18.364 5.63604C16.7353 4.00736 14.4853 3 12 3C7.02944 3 3 7.02944 3 12C3 14.4853 4.00736 16.7353 5.63604 18.364C7.26472 19.9926 9.51472 21 12 21C16.9706 21 21 16.9706 21 12C21 9.51472 19.9926 7.26472 18.364 5.63604ZM16.9497 7.05025C18.2165 8.317 19 10.067 19 12C19 15.866 15.866 19 12 19C10.067 19 8.317 18.2165 7.05025 16.9497L16.9497 7.05025Z" fill="current" />
</svg>
