<svg width="24" height="24" viewBox="0 0 24 24" fill="current" xmlns="http://www.w3.org/2000/svg">
<path d="M21.5122 2.26326C20.8145 1.56557 19.6833 1.56557 18.9856 2.26326L18.5645 2.68435L21.0911 5.2109L21.5122 4.78981C22.2099 4.09212 22.2099 2.96094 21.5122 2.26326Z" fill="current" />
<path d="M9 3.99998C6.23858 3.99998 4 6.23856 4 8.99998V15C4 17.7614 6.23858 20 9 20H15C17.7614 20 20 17.7614 20 15V11C20 10.4477 20.4477 9.99998 21 9.99998C21.5523 9.99998 22 10.4477 22 11V15C22 18.866 18.866 22 15 22H9C5.13401 22 2 18.866 2 15V8.99998C2 5.13399 5.13401 1.99998 9 1.99998H12C12.5523 1.99998 13 2.4477 13 2.99998C13 3.55227 12.5523 3.99998 12 3.99998H9Z" fill="current" />
<path d="M16.5418 4.68292C16.9321 4.29127 17.5662 4.29074 17.9572 4.68173L19.0695 5.79406C19.4596 6.18412 19.4601 6.81637 19.0707 7.20709L11.297 15.007L8.30011 16.1201C7.89908 16.2691 7.50835 15.8784 7.65731 15.4773L8.77043 12.4805L16.5418 4.68292Z" fill="current" />
</svg>
