<svg width="24" height="24" viewBox="0 0 24 24" fill="current" xmlns="http://www.w3.org/2000/svg">
<path d="M6 18H14.6667V15.9898H9.26202L12.4891 13.094C12.9671 12.6689 13.3665 12.2822 13.6872 11.9339C14.0137 11.5797 14.2585 11.1989 14.4218 10.7916C14.585 10.3783 14.6667 9.86762 14.6667 9.25954C14.6667 8.42711 14.4801 7.6921 14.107 7.0545C13.7397 6.41099 13.2383 5.90917 12.6028 5.54905C11.9673 5.18302 11.2443 5 10.4339 5C9.5652 5 8.79852 5.17416 8.13387 5.52248C7.46922 5.8708 6.95033 6.36081 6.57719 6.99251C6.20406 7.62421 6.01749 8.36512 6.01749 9.21526H8.18634C8.17468 8.82561 8.26214 8.46253 8.44871 8.12602C8.63527 7.78951 8.89472 7.52089 9.22704 7.32016C9.5652 7.11353 9.95291 7.01022 10.3902 7.01022C11.014 7.01022 11.5212 7.22275 11.9119 7.64782C12.3083 8.06698 12.5066 8.59537 12.5066 9.23297C12.5066 9.54587 12.422 9.87057 12.2529 10.2071C12.0897 10.5436 11.8011 10.9008 11.3872 11.2786L6 16.1403V18Z" fill="current"/>
</svg>
