<svg width="24" height="24" viewBox="0 0 24 24" fill="current" xmlns="http://www.w3.org/2000/svg">
<path d="M12 13C13.6569 13 15 11.6569 15 10C15 8.34315 13.6569 7 12 7C10.3431 7 9 8.34315 9 10C9 11.6569 10.3431 13 12 13Z" fill="current" />
<path fill-rule="evenodd" clip-rule="evenodd" d="M20 10.2051C20 16.359 12 22 12 22C12 22 4 16.359 4 10.2051C4 5.67356 7.58172 2 12 2C16.4183 2 20 5.67356 20 10.2051ZM18 10.2051C18 12.4871 16.461 14.9498 14.5264 17.058C13.6154 18.0507 12.6982 18.8771 12 19.4606C11.3018 18.8771 10.3846 18.0507 9.47359 17.058C7.53902 14.9498 6 12.4871 6 10.2051C6 6.73009 8.73372 4 12 4C15.2663 4 18 6.73009 18 10.2051Z" fill="current" />
</svg>
