<svg width="24" height="24" viewBox="0 0 24 24" fill="current" xmlns="http://www.w3.org/2000/svg">
<path d="M2 5C2 4.44772 2.44772 4 3 4H3.88317C5.29778 4 6.52017 4.9882 6.81658 6.37141L6.96312 7.05527L6.96498 7.05483L7.66364 10.2345L7.67715 10.2346L8.10243 12.3876C8.28753 13.3247 9.10937 14.0001 10.0645 14.0001H15.9346C16.8898 14.0001 17.7116 13.3247 17.8967 12.3876L18.4875 9.3968C18.4908 9.36651 18.4954 9.33611 18.5015 9.30566L18.9829 6.90717C19.0916 6.36569 19.6187 6.01484 20.1602 6.12352C20.7017 6.23221 21.0525 6.75927 20.9438 7.30076L20.5455 9.28531C20.5405 9.31935 20.5347 9.35346 20.528 9.38765L19.8588 12.7752C19.4886 14.6493 17.8449 16.0001 15.9346 16.0001H10.0645C8.15422 16.0001 6.51053 14.6493 6.14034 12.7752L6.02834 12.2082L6.0222 12.2095L4.86097 6.79047C4.76217 6.3294 4.35471 6 3.88317 6H3C2.44772 6 2 5.55228 2 5Z" fill="current" />
<path d="M8 21C9.10457 21 10 20.1046 10 19C10 17.8954 9.10457 17 8 17C6.89543 17 6 17.8954 6 19C6 20.1046 6.89543 21 8 21Z" fill="current" />
<path d="M17 21C18.1046 21 19 20.1046 19 19C19 17.8954 18.1046 17 17 17C15.8954 17 15 17.8954 15 19C15 20.1046 15.8954 21 17 21Z" fill="current" />
<path d="M16.7016 7.15377C17.1031 6.77456 17.1212 6.14165 16.742 5.74014C16.3628 5.33862 15.7298 5.32054 15.3283 5.69975L11.7822 8.78489L10.6905 7.69279C10.3 7.30226 9.66682 7.30226 9.27629 7.69279C8.88577 8.08331 8.88577 8.71649 9.27629 9.10701L11.7424 11.5735L16.7016 7.15377Z" fill="current" />
</svg>
