<svg width="24" height="24" viewBox="0 0 24 24" fill="current" xmlns="http://www.w3.org/2000/svg">
<path fill-rule="evenodd" clip-rule="evenodd" d="M11.9552 4.01101C11.9551 4.01109 11.9552 4.01093 11.9552 4.01101L9.24177 8.11901C8.95202 8.55768 8.50308 8.85708 8.0029 8.97335L3.04327 10.1262L6.3012 13.7644C6.65169 14.1558 6.83517 14.6729 6.79428 15.206L6.42716 19.9935C6.43346 19.9962 6.44071 19.9984 6.44844 19.9994C6.45933 20.0008 6.47314 20.0003 6.49204 19.9931L11.2524 18.171C11.7326 17.9872 12.267 17.9872 12.7472 18.171L17.5075 19.9931C17.5264 20.0003 17.5403 20.0008 17.5511 19.9994C17.5589 19.9984 17.5661 19.9962 17.5724 19.9935L17.2053 15.206C17.1644 14.6729 17.3479 14.1558 17.6984 13.7644L20.9563 10.1262L15.9967 8.97335C15.4965 8.85708 15.0476 8.55768 14.7578 8.11901L12.0444 4.01101C12.0444 4.01093 12.0444 4.01109 12.0444 4.01101C12.0442 4.0106 12.0439 4.00985 12.0404 4.00806C12.0337 4.00473 12.0195 4 11.9998 4C11.9801 4 11.9659 4.00473 11.9592 4.00806C11.9557 4.00986 11.9554 4.0106 11.9552 4.01101ZM2.80526 9.2356L3.00142 10.0795L2.80526 9.2356ZM10.2864 2.90872C11.0867 1.69709 12.9129 1.69709 13.7132 2.90872L16.4253 7.01468C16.4257 7.01505 16.4264 7.01558 16.4274 7.01623C16.4312 7.01887 16.4385 7.02273 16.4495 7.02529L21.4385 8.18499C22.856 8.51449 23.5475 10.2307 22.5004 11.4L19.2018 15.0835L19.5694 19.8779C19.6885 21.4305 18.0918 22.3583 16.7926 21.8609L12.0322 20.0388C12.0124 20.0312 11.9872 20.0312 11.9674 20.0388L7.207 21.8609C5.90774 22.3583 4.3111 21.4305 4.43016 19.8779L4.79781 15.0835L1.49923 11.4C0.452121 10.2307 1.14358 8.51448 2.56104 8.18499L7.55008 7.02529C7.56108 7.02273 7.56837 7.01887 7.57223 7.01623C7.57318 7.01557 7.57386 7.01505 7.5743 7.01468L10.2864 2.90872Z" fill="current"#A6A9C3"/>
</svg>
