<svg width="24" height="24" viewBox="0 0 24 24" fill="current" xmlns="http://www.w3.org/2000/svg">
<path d="M9 7C9 6.44772 9.44772 6 10 6H11C11.5523 6 12 6.44772 12 7C12 7.55228 11.5523 8 11 8H10C9.44772 8 9 7.55228 9 7Z" fill="current" />
<path d="M14 6C13.4477 6 13 6.44772 13 7C13 7.55228 13.4477 8 14 8C14.5523 8 15 7.55228 15 7C15 6.44772 14.5523 6 14 6Z" fill="current" />
<path d="M16 7C16 6.44772 16.4477 6 17 6C17.5523 6 18 6.44772 18 7C18 7.55228 17.5523 8 17 8C16.4477 8 16 7.55228 16 7Z" fill="current" />
<path fill-rule="evenodd" clip-rule="evenodd" d="M6 3C3.79086 3 2 4.79086 2 7V17C2 19.2091 3.79086 21 6 21H18C20.2091 21 22 19.2091 22 17V7C22 4.79086 20.2091 3 18 3H6ZM18 5H6C4.89543 5 4 5.89543 4 7L4 9L20 9V7C20 5.89543 19.1046 5 18 5ZM20 11L4 11V17C4 18.1046 4.89543 19 6 19H18C19.1046 19 20 18.1046 20 17V11Z" fill="current" />
</svg>
