<svg width="24" height="24" viewBox="0 0 24 24" fill="current" xmlns="http://www.w3.org/2000/svg">
<path fill-rule="evenodd" clip-rule="evenodd" d="M12 7.68729C12 7.68729 15.4387 9.16608 17.8301 7.78537C20.2216 6.40466 20.6603 2.68729 20.6603 2.68729C20.6603 2.68729 17.2216 1.2085 14.8301 2.58922C12.4387 3.96993 12 7.68729 12 7.68729ZM14.4155 6.29268C15.3843 6.44903 16.2497 6.38842 16.8301 6.05332C17.4105 5.71821 17.8958 4.99903 18.2447 4.08191C17.276 3.92556 16.4105 3.98616 15.8301 4.32127C15.2497 4.65637 14.7645 5.37556 14.4155 6.29268ZM19.8776 4.5278C19.8777 4.52785 19.8777 4.52785 19.8776 4.52779L19.8776 4.5278Z" fill="current"/>
<path fill-rule="evenodd" clip-rule="evenodd" d="M12.1968 8.57431C12.2636 8.55152 12.3282 8.52889 12.3904 8.50659L16.6179 14.4191C15.6362 15.148 15 16.3161 15 17.6328C15 19.842 16.7909 21.6328 19 21.6328C21.2091 21.6328 23 19.842 23 17.6328C23 15.4237 21.2091 13.6328 19 13.6328C18.8422 13.6328 18.6866 13.6419 18.5336 13.6597L12.9954 5.91406C12.588 4.41868 11.7789 2.54653 10.1962 1.63271C7.3264 -0.024143 3 2.09681 3 2.09681C3 2.09681 3.3264 6.90406 6.19615 8.56091C7.17325 9.12505 8.31922 9.25122 9.40579 9.17227L6.44148 13.6637C3.94293 13.9414 2 16.0602 2 18.6328C2 21.3942 4.23858 23.6328 7 23.6328C9.76142 23.6328 12 21.3942 12 18.6328C12 16.4569 10.6101 14.6056 8.66968 13.9184L12.1968 8.57431ZM11.1068 6.59502C11.0643 6.42925 11.0161 6.2575 10.9614 6.08267C10.5647 4.8132 9.96382 3.80797 9.19615 3.36476C8.42849 2.92155 7.25749 2.90378 5.95973 3.19493C5.70339 3.25244 5.45913 3.31823 5.23336 3.38625C5.28734 3.61577 5.3525 3.8602 5.43087 4.11095C5.8276 5.38042 6.42849 6.38565 7.19615 6.82886C7.96382 7.27208 9.13481 7.28984 10.4326 6.99869C10.6013 6.96083 10.7648 6.91939 10.9213 6.87608L11.1068 6.59502ZM7 21.6328C8.65685 21.6328 10 20.2897 10 18.6328C10 16.976 8.65685 15.6328 7 15.6328C5.34315 15.6328 4 16.976 4 18.6328C4 20.2897 5.34315 21.6328 7 21.6328ZM21 17.6328C21 18.7374 20.1046 19.6328 19 19.6328C17.8954 19.6328 17 18.7374 17 17.6328C17 16.5282 17.8954 15.6328 19 15.6328C20.1046 15.6328 21 16.5282 21 17.6328Z" fill="current"/>
</svg>
