<svg width="24" height="24" viewBox="0 0 24 24" fill="current" xmlns="http://www.w3.org/2000/svg">
<path d="M10 8C10 9.10457 9.10457 10 8 10C6.89543 10 6 9.10457 6 8C6 6.89543 6.89543 6 8 6C9.10457 6 10 6.89543 10 8Z" fill="current" />
<path d="M6 17C6 16.4477 6.44772 16 7 16L14 16C14.5523 16 15 16.4477 15 17C15 17.5523 14.5523 18 14 18L7 18C6.44772 18 6 17.5523 6 17Z" fill="current" />
<path d="M13 8C12.4477 8 12 8.44772 12 9C12 9.55228 12.4477 10 13 10L17 10C17.5523 10 18 9.55228 18 9C18 8.44771 17.5523 8 17 8L13 8Z" fill="current" />
<path d="M6 13C6 12.4477 6.44772 12 7 12L17 12C17.5523 12 18 12.4477 18 13C18 13.5523 17.5523 14 17 14L7 14C6.44772 14 6 13.5523 6 13Z" fill="current" />
<path fill-rule="evenodd" clip-rule="evenodd" d="M2 6C2 3.79086 3.79086 2 6 2H18C20.2091 2 22 3.79086 22 6V18C22 20.2091 20.2091 22 18 22H6C3.79086 22 2 20.2091 2 18V6ZM6 4H18C19.1046 4 20 4.89543 20 6V18C20 19.1046 19.1046 20 18 20H6C4.89543 20 4 19.1046 4 18V6C4 4.89543 4.89543 4 6 4Z" fill="current" />
</svg>
