<svg width="24" height="24" viewBox="0 0 24 24" fill="current" xmlns="http://www.w3.org/2000/svg">
<path d="M10.392 20C10.392 20.5523 10.8397 21 11.392 21H11.7976C12.3499 21 12.7976 20.5523 12.7976 20V19.2657C14.0753 19.0762 15.0935 18.5961 15.8521 17.8253C16.6174 17.0544 17 16.0942 17 14.9445C17 13.9516 16.7238 13.1546 16.1715 12.5536C15.6258 11.9461 14.7308 11.4627 13.4864 11.1034L10.9011 10.3685C10.2157 10.1726 9.71325 9.94066 9.39383 9.67284C9.08106 9.39848 8.92468 9.06532 8.92468 8.67338C8.92468 8.15079 9.1709 7.71639 9.66334 7.37017C10.1558 7.02395 10.7647 6.85738 11.49 6.87044C12.2486 6.89004 12.8941 7.11541 13.4265 7.54654C13.7061 7.76678 13.9319 8.02391 14.1041 8.31795C14.3791 8.7877 14.8733 9.15523 15.4092 9.0594L15.8684 8.97727C16.434 8.87612 16.8078 8.3145 16.583 7.78578C16.3088 7.14071 15.932 6.58737 15.4528 6.12575C14.7474 5.43985 13.8624 4.99565 12.7976 4.79314V4C12.7976 3.44772 12.3499 3 11.7976 3H11.392C10.8397 3 10.392 3.44772 10.392 4V4.74415C9.20085 4.91399 8.25923 5.35819 7.56715 6.07676C6.88173 6.78879 6.53902 7.69352 6.53902 8.79096C6.53902 10.5874 7.54719 11.7893 9.56352 12.3968L13.0272 13.4551C13.5862 13.6249 13.9921 13.8405 14.245 14.1018C14.4979 14.3631 14.6243 14.6962 14.6243 15.1013C14.6243 15.6826 14.3581 16.166 13.8258 16.5514C13.2934 16.9369 12.6146 17.1296 11.7895 17.1296C10.931 17.1296 10.1957 16.8944 9.58348 16.4241C9.20855 16.136 8.91223 15.7843 8.69453 15.3688C8.45229 14.9065 7.97794 14.5659 7.46233 14.6467L6.99047 14.7206C6.44386 14.8063 6.06001 15.3248 6.23896 15.8484C6.49332 16.5925 6.89612 17.2351 7.44737 17.7763C8.22595 18.5406 9.2075 19.0272 10.392 19.2363V20Z" fill="current" />
</svg>
