<svg width="24" height="24" viewBox="0 0 24 24" fill="current" xmlns="http://www.w3.org/2000/svg">
<path fill-rule="evenodd" clip-rule="evenodd" d="M15.641 12.7694C17.075 11.673 18 9.94452 18 8C18 4.68629 15.3137 2 12 2C8.68629 2 6 4.68629 6 8C6 9.94452 6.92501 11.673 8.35901 12.7694C7.34459 13.2181 6.42127 13.8508 5.63604 14.636C4.80031 15.4718 4.13738 16.4639 3.68508 17.5558C3.23279 18.6478 3 19.8181 3 21C3 21.5523 3.44772 22 4 22C4.55228 22 5 21.5523 5 21C5 20.0807 5.18106 19.1705 5.53284 18.3212C5.88463 17.4719 6.40024 16.7003 7.05025 16.0503C7.70026 15.4002 8.47194 14.8846 9.32122 14.5328C10.1705 14.1811 11.0807 14 12 14C12.9193 14 13.8295 14.1811 14.6788 14.5328C15.5281 14.8846 16.2997 15.4002 16.9497 16.0503C17.5998 16.7003 18.1154 17.4719 18.4672 18.3212C18.8189 19.1705 19 20.0807 19 21C19 21.5523 19.4477 22 20 22C20.5523 22 21 21.5523 21 21C21 19.8181 20.7672 18.6478 20.3149 17.5558C19.8626 16.4639 19.1997 15.4718 18.364 14.636C17.5787 13.8508 16.6554 13.2181 15.641 12.7694ZM16 8C16 10.2091 14.2091 12 12 12C9.79086 12 8 10.2091 8 8C8 5.79086 9.79086 4 12 4C14.2091 4 16 5.79086 16 8Z" fill="current" />
</svg>
