<svg width="24" height="24" viewBox="0 0 24 24" fill="current" xmlns="http://www.w3.org/2000/svg">
<path fill-rule="evenodd" clip-rule="evenodd" d="M18.7994 6.8C18.7994 8.2474 18.1588 9.54517 17.1456 10.4252C20.113 11.6591 22.1995 14.5859 22.1995 18H20.1995C20.1995 14.5758 17.4237 11.8 13.9995 11.8C12.6138 11.8 11.3343 12.2546 10.3019 13.0228L8.91602 11.5654C9.50218 11.1017 10.1533 10.7164 10.8533 10.4253C9.84008 9.54522 9.19942 8.24743 9.19942 6.8C9.19942 4.14903 11.3485 2 13.9994 2C16.6504 2 18.7994 4.14903 18.7994 6.8ZM13.9994 9.6C15.5458 9.6 16.7994 8.3464 16.7994 6.8C16.7994 5.2536 15.5458 4 13.9994 4C12.453 4 11.1994 5.2536 11.1994 6.8C11.1994 8.3464 12.453 9.6 13.9994 9.6Z" fill="current" />
<path fill-rule="evenodd" clip-rule="evenodd" d="M6.60633 13.0034C6.65014 12.7405 6.87758 12.5479 7.14408 12.5479H7.85592C8.12242 12.5479 8.34986 12.7405 8.39367 13.0034L8.52256 13.7767C9.15334 13.9517 9.71843 14.2847 10.1726 14.7303L10.9076 14.4549C11.1572 14.3614 11.4378 14.4621 11.571 14.6928L11.9269 15.3093C12.0602 15.5401 12.007 15.8334 11.8013 16.0028L11.1961 16.501C11.2745 16.8057 11.3161 17.1252 11.3161 17.4543C11.3161 17.7835 11.2745 18.1029 11.1961 18.4076L11.8013 18.9058C12.007 19.0752 12.0602 19.3685 11.9269 19.5993L11.571 20.2158C11.4378 20.4466 11.1572 20.5472 10.9076 20.4537L10.1726 20.1783C9.71843 20.624 9.15334 20.9569 8.52256 21.1319L8.39367 21.9052C8.34985 22.1681 8.12242 22.3608 7.85592 22.3608H7.14408C6.87758 22.3608 6.65014 22.1681 6.60633 21.9052L6.47744 21.1319C5.84666 20.9569 5.28157 20.624 4.82743 20.1783L4.09237 20.4537C3.84281 20.5472 3.56224 20.4466 3.42899 20.2158L3.07307 19.5993C2.93982 19.3685 2.99296 19.0752 3.1987 18.9058L3.8039 18.4076C3.72553 18.1029 3.68386 17.7835 3.68386 17.4543C3.68386 17.1252 3.72553 16.8057 3.80389 16.501L3.1987 16.0028C2.99296 15.8335 2.93982 15.5402 3.07307 15.3094L3.42899 14.6929C3.56224 14.4621 3.84281 14.3615 4.09237 14.455L4.8274 14.7303C5.28155 14.2847 5.84665 13.9517 6.47744 13.7767L6.60633 13.0034ZM7.5 19.2979C8.51827 19.2979 9.34375 18.4724 9.34375 17.4541C9.34375 16.4358 8.51827 15.6104 7.5 15.6104C6.48172 15.6104 5.65625 16.4358 5.65625 17.4541C5.65625 18.4724 6.48172 19.2979 7.5 19.2979Z" fill="current" />
</svg>
