<svg width="24" height="24" viewBox="0 0 24 24" fill="current" xmlns="http://www.w3.org/2000/svg">
<path fill-rule="evenodd" clip-rule="evenodd" d="M18.7997 6.8C18.7997 8.2474 18.1591 9.54517 17.1459 10.4252C20.1133 11.6591 22.1998 14.5859 22.1998 18H20.1998C20.1998 14.5758 17.424 11.8 13.9998 11.8C12.1 11.8 10.3998 12.6544 9.26255 14L7.7998 12.6332C8.62659 11.6789 9.67001 10.9174 10.8536 10.4253C9.84037 9.54522 9.19971 8.24743 9.19971 6.8C9.19971 4.14903 11.3487 2 13.9997 2C16.6507 2 18.7997 4.14903 18.7997 6.8ZM13.9997 9.6C15.5461 9.6 16.7997 8.3464 16.7997 6.8C16.7997 5.2536 15.5461 4 13.9997 4C12.4533 4 11.1997 5.2536 11.1997 6.8C11.1997 8.3464 12.4533 9.6 13.9997 9.6Z" fill="current" />
<path d="M4.24275 14V17.2425H1V19.2425H4.24275L4.24275 22.4853H6.24275V19.2425H9.48528L9.48528 17.2425H6.24275L6.24275 14H4.24275Z" fill="current" />
</svg>
