<svg width="24" height="24" viewBox="0 0 24 24" fill="current" xmlns="http://www.w3.org/2000/svg">
<path d="M7.55545 5.34827C9.16922 4.26998 11.12 3.81513 13.0442 4.06847C14.9685 4.3218 16.735 5.26604 18.0147 6.72526C18.8065 7.62815 19.3786 8.69009 19.6996 9.82836L17.159 8.3766C16.8011 8.17209 16.3449 8.31023 16.1606 8.67892C15.9016 9.19686 16 9.50003 16.8227 10.2152C20 12.5 20.2942 13 21 13C21.5523 13 22 12.5523 22 12C22 9.57394 21.118 7.23059 19.5184 5.40657C17.9188 3.58254 15.7106 2.40224 13.3053 2.08558C10.8999 1.76891 8.46152 2.33747 6.44431 3.68533C4.4271 5.03319 2.96867 7.06842 2.34075 9.41183C1.71284 11.7552 1.95825 14.247 3.03128 16.4229C4.10431 18.5988 5.93177 20.3104 8.17318 21.2388C10.1053 22.0391 12.2314 22.2104 14.2529 21.743C14.791 21.6185 15.0705 21.0454 14.893 20.5224C14.7154 19.9994 14.148 19.726 13.607 19.837C12.0487 20.1565 10.4221 20.0056 8.93854 19.3911C7.14542 18.6483 5.68345 17.279 4.82503 15.5383C3.96661 13.7976 3.77027 11.8042 4.2726 9.92947C4.77494 8.05474 5.94168 6.42655 7.55545 5.34827Z" fill="current" />
</svg>
