<svg width="24" height="24" viewBox="0 0 24 24" fill="current" xmlns="http://www.w3.org/2000/svg">
<path d="M10.9558 4.06846C12.7018 3.83859 14.4749 4.19127 16 5.07181C17.5251 5.95235 18.7171 7.31153 19.391 8.93855C19.7515 9.80872 19.9529 10.7295 19.9927 11.6581L18.1997 10.1706C18.0678 10.0612 17.9018 10.0013 17.7305 10.0013C17.3246 10.0013 16.9956 10.3303 16.9956 10.7362V10.7513C16.9956 10.9136 17.0483 11.0715 17.1456 11.2013L19.7588 14.6856C19.8694 14.975 20.1124 15.209 20.4345 15.2953C20.968 15.4383 21.5163 15.1217 21.6592 14.5882C22.229 12.4619 22.0812 10.207 21.2388 8.17318C20.3964 6.1394 18.9064 4.44043 17 3.33976C15.0936 2.23909 12.8772 1.79823 10.6947 2.08557C8.51222 2.3729 6.48551 3.37236 4.92892 4.92895C4.5384 5.31947 4.5384 5.95264 4.92892 6.34316C5.31945 6.73368 5.95261 6.73368 6.34313 6.34316C7.5884 5.09789 9.20977 4.29832 10.9558 4.06846Z" fill="current" />
<path d="M8 18.9282C9.52514 19.8088 11.2982 20.1614 13.0442 19.9316C14.7902 19.7017 16.4116 18.9021 17.6569 17.6569C18.0474 17.2663 18.6805 17.2663 19.0711 17.6569C19.4616 18.0474 19.4616 18.6806 19.0711 19.0711C17.5145 20.6277 15.4878 21.6271 13.3053 21.9145C11.1228 22.2018 8.90642 21.7609 7 20.6603C5.09358 19.5596 3.60363 17.8606 2.76121 15.8269C1.91879 13.7931 1.771 11.5382 2.34075 9.41183C2.48369 8.87836 3.03202 8.56178 3.56549 8.70472C3.88758 8.79103 4.13061 9.02511 4.24117 9.31448L6.85433 12.7987C6.9517 12.9285 7.00433 13.0864 7.00433 13.2487V13.2638C7.00433 13.6697 6.67532 13.9987 6.26947 13.9987C6.09812 13.9987 5.93215 13.9388 5.80027 13.8294L4.00731 12.3419C4.04704 13.2705 4.24853 14.1913 4.60897 15.0615C5.2829 16.6885 6.47487 18.0477 8 18.9282Z" fill="current" />
</svg>
