<svg width="24" height="24" viewBox="0 0 24 24" fill="current" xmlns="http://www.w3.org/2000/svg">
<path fill-rule="evenodd" clip-rule="evenodd" d="M14.0455 4.5H9.95455C8.62899 4.5 7.77672 4.50282 7.14999 4.58199C6.55732 4.65687 6.39744 4.77656 6.32596 4.84372C6.26768 4.89848 6.15824 5.01206 6.08473 5.52584C6.0036 6.09284 6 6.87222 6 8.12531V17.1875C6 18.3346 6.00441 19.0163 6.07368 19.4674C6.12124 19.4514 6.18016 19.4278 6.25151 19.3931C6.62077 19.2137 7.06232 18.8729 7.64215 18.3728C7.74763 18.2819 7.85903 18.1843 7.97496 18.0829C8.43017 17.6844 8.95523 17.2248 9.46555 16.8606C10.0892 16.4155 10.9713 15.8976 12 15.8976C13.0287 15.8976 13.9108 16.4155 14.5344 16.8606C15.0448 17.2248 15.5698 17.6844 16.025 18.0829C16.141 18.1843 16.2524 18.2819 16.3579 18.3728C16.9377 18.8729 17.3792 19.2137 17.7485 19.3931C17.8198 19.4278 17.8788 19.4514 17.9263 19.4674C17.9956 19.0163 18 18.3346 18 17.1875V8.12531C18 6.87222 17.9964 6.09284 17.9153 5.52584C17.8418 5.01206 17.7323 4.89848 17.674 4.84372C17.6026 4.77656 17.4427 4.65687 16.85 4.58199C16.2233 4.50282 15.371 4.5 14.0455 4.5ZM17.8717 19.7117C17.8716 19.7116 17.8723 19.7098 17.8739 19.7064C17.8725 19.7101 17.8717 19.7118 17.8717 19.7117ZM6.12835 19.7117C6.12831 19.7118 6.12753 19.7101 6.12614 19.7064C6.12769 19.7098 6.12839 19.7116 6.12835 19.7117ZM5.2988 3.75058C4.5 4.50117 4.5 5.70922 4.5 8.12531V17.1875C4.5 19.3886 4.5 20.4891 5.24485 20.8455C6.44076 21.4177 7.72272 20.2966 8.99564 19.1833C10.0194 18.2879 11.0374 17.3976 12 17.3976C12.9626 17.3976 13.9806 18.2879 15.0044 19.1833C16.2773 20.2966 17.5592 21.4177 18.7552 20.8455C19.5 20.4891 19.5 19.3886 19.5 17.1875V8.12531C19.5 5.70922 19.5 4.50117 18.7012 3.75058C17.9024 3 16.6168 3 14.0455 3H9.95455C7.38325 3 6.0976 3 5.2988 3.75058Z" fill="current"/>
</svg>
