<svg width="24" height="24" viewBox="0 0 24 24" fill="current" xmlns="http://www.w3.org/2000/svg">
<path d="M4 4V8.4H2V4C2 2.89543 2.89543 2 4 2H8.4V4L4 4Z" fill="current" />
<path d="M20 20V15.6L22 15.6V20C22 21.1046 21.1046 22 20 22H15.6V20L20 20Z" fill="current" />
<path d="M8.4 20H4L4 15.6L2 15.6V20C2 21.1046 2.89543 22 4 22H8.4V20Z" fill="current" />
<path d="M20 4L15.6 4L15.6 2H20C21.1046 2 22 2.89543 22 4V8.4H20L20 4Z" fill="current" />
<path d="M5 13H19V11H5V13Z" fill="current" />
</svg>
