<svg width="24" height="24" viewBox="0 0 24 24" fill="current" xmlns="http://www.w3.org/2000/svg">
<path fill-rule="evenodd" clip-rule="evenodd" d="M2 5C2 3.89543 2.89543 3 4 3H20C21.1046 3 22 3.89543 22 5V9C22 10.1046 21.1046 11 20 11H4C2.89543 11 2 10.1046 2 9V5ZM4 5H20V9H4V5Z" fill="current" />
<path fill-rule="evenodd" clip-rule="evenodd" d="M2 15C2 13.8954 2.89543 13 4 13H20C21.1046 13 22 13.8954 22 15V19C22 20.1046 21.1046 21 20 21H4C2.89543 21 2 20.1046 2 19V15ZM4 15H20V19H4V15Z" fill="current" />
</svg>
