<svg width="24" height="24" viewBox="0 0 24 24" fill="current" xmlns="http://www.w3.org/2000/svg">
<path fill-rule="evenodd" clip-rule="evenodd" d="M8.96148 20.615L19.6795 14.4614C21.4402 13.3675 21.4402 10.6325 19.6795 9.53858L8.96149 3.38502C7.20083 2.29106 5 3.65851 5 5.84644V7.89351C5 9.0069 5.46125 10.0427 6.23312 10.7824C6.52642 11.0634 6.86458 11.3017 7.23932 11.4853C7.34847 11.5387 7.46072 11.5875 7.57587 11.6314L8.54333 12L7.57587 12.3686C7.46072 12.4125 7.34846 12.4613 7.23931 12.5147C6.86457 12.6983 6.52642 12.9366 6.23312 13.2176C5.46125 13.9573 5 14.9931 5 16.1065V18.1536C5 20.3415 7.20082 21.7089 8.96148 20.615ZM8.28794 14.2375C7.51246 14.533 7 15.2766 7 16.1065V18.1536C7 18.5505 7.18829 18.7995 7.37601 18.9162C7.55089 19.0248 7.72145 19.0308 7.90596 18.9162L7.93551 18.8978L18.6436 12.75C18.8468 12.6139 19 12.3543 19 12C19 11.6457 18.8468 11.3861 18.6436 11.25L7.93551 5.10217L7.90596 5.08381C7.72145 4.96916 7.55089 4.97515 7.37601 5.08381C7.18829 5.20045 7 5.44951 7 5.84644V7.89351C7 8.72336 7.51246 9.467 8.28793 9.76245L14.1608 12L8.28794 14.2375Z" fill="current"/>
</svg>
