<svg width="24" height="24" viewBox="0 0 24 24" fill="current" xmlns="http://www.w3.org/2000/svg">
<path fill-rule="evenodd" clip-rule="evenodd" d="M7.42873 21C4.98281 21 3 19.0172 3 16.5713V8C3 5.23858 5.23858 3 8 3H16.5713C19.0172 3 21 4.98281 21 7.42873C21 10.2858 21 13.1429 21 16C21 18.7614 18.7614 21 16 21H7.42873ZM5 16.5713V8C5 6.34315 6.34315 5 8 5H16.5713C17.9126 5 19 6.08738 19 7.42873V8.75C19 10.8292 17.3145 12.5147 15.2353 12.5147C13.7328 12.5147 12.5147 13.7328 12.5147 15.2353C12.5147 17.3145 10.8292 19 8.75 19H7.42873C6.08738 19 5 17.9126 5 16.5713ZM13.1158 19H16C17.6569 19 19 17.6569 19 16V13.1158C17.99 13.9875 16.6742 14.5147 15.2353 14.5147C14.8373 14.5147 14.5147 14.8373 14.5147 15.2353C14.5147 16.6742 13.9875 17.99 13.1158 19Z" fill="current" />
</svg>
