<svg width="24" height="24" viewBox="0 0 24 24" fill="current" xmlns="http://www.w3.org/2000/svg">
<path fill-rule="evenodd" clip-rule="evenodd" d="M21 17V7C21 4.79086 19.2091 3 17 3H7C4.79086 3 3 4.79086 3 7V17C3 19.2091 4.79086 21 7 21H17C19.2091 21 21 19.2091 21 17ZM8 7.5C8 8.32843 7.32843 9 6.5 9C5.67157 9 5 8.32843 5 7.5V7C5 5.89543 5.89543 5 7 5H8V7.5ZM12 11C10.8796 11 9.86685 10.5394 9.14069 9.7972C8.49903 10.5342 7.55391 11 6.5 11C5.9632 11 5.45463 10.8792 5 10.6632V17C5 18.1046 5.89543 19 7 19H8V16C8 14.8954 8.89543 14 10 14H14C15.1046 14 16 14.8954 16 16V19H17C18.1046 19 19 18.1046 19 17V10.6632C18.5454 10.8792 18.0368 11 17.5 11C16.4461 11 15.501 10.5342 14.8593 9.7972C14.1332 10.5394 13.1204 11 12 11ZM10 7V5H14V7C14 8.10457 13.1046 9 12 9C10.8954 9 10 8.10457 10 7ZM19 7V7.5C19 8.32843 18.3284 9 17.5 9C16.6716 9 16 8.32843 16 7.5V5H17C18.1046 5 19 5.89543 19 7ZM14 16V19H10V16H14Z" fill="current" />
</svg>
