<svg width="24" height="24" viewBox="0 0 24 24" fill="current" xmlns="http://www.w3.org/2000/svg">
<path d="M5.63604 5.63606C6.02656 5.24554 6.02656 4.61237 5.63604 4.22185C5.24552 3.83132 4.61235 3.83132 4.22183 4.22185C2.15893 6.28475 1 9.08264 1 12C1 14.9174 2.15892 17.7153 4.22182 19.7782C4.61235 20.1687 5.24551 20.1687 5.63604 19.7782C6.02656 19.3877 6.02656 18.7545 5.63604 18.364C3.94821 16.6762 3 14.387 3 12C3 9.61307 3.94821 7.32389 5.63604 5.63606Z" fill="current" />
<path d="M19.7782 4.22185C19.3876 3.83133 18.7545 3.83133 18.364 4.22185C17.9734 4.61238 17.9734 5.24554 18.364 5.63606C20.0518 7.32389 21 9.61308 21 12C21 14.387 20.0518 16.6762 18.364 18.364C17.9734 18.7545 17.9734 19.3877 18.364 19.7782C18.7545 20.1687 19.3876 20.1687 19.7782 19.7782C21.8411 17.7153 23 14.9174 23 12C23 9.08264 21.8411 6.28475 19.7782 4.22185Z" fill="current" />
<path d="M8.46447 8.46449C8.85499 8.07397 8.85499 7.4408 8.46447 7.05028C8.07394 6.65975 7.44078 6.65975 7.05025 7.05028C5.7375 8.36303 5 10.1435 5 12C5 13.8565 5.7375 15.637 7.05025 16.9498C7.44077 17.3403 8.07394 17.3403 8.46446 16.9498C8.85499 16.5592 8.85499 15.9261 8.46446 15.5356C7.52678 14.5979 7 13.3261 7 12C7 10.6739 7.52678 9.40217 8.46447 8.46449Z" fill="current" />
<path d="M16.9497 7.05028C16.5592 6.65975 15.9261 6.65975 15.5355 7.05028C15.145 7.4408 15.145 8.07397 15.5355 8.46449C16.4732 9.40217 17 10.6739 17 12C17 13.3261 16.4732 14.5979 15.5355 15.5356C15.145 15.9261 15.145 16.5592 15.5355 16.9498C15.9261 17.3403 16.5592 17.3403 16.9497 16.9498C18.2625 15.637 19 13.8565 19 12C19 10.1435 18.2625 8.36303 16.9497 7.05028Z" fill="current" />
<path d="M12 14C13.1046 14 14 13.1046 14 12C14 10.8954 13.1046 10 12 10C10.8954 10 10 10.8954 10 12C10 13.1046 10.8954 14 12 14Z" fill="current" />
</svg>
