<svg width="25" height="24" viewBox="0 0 25 24" fill="current" xmlns="http://www.w3.org/2000/svg">
<path d="M14.112 8.43771C13.7215 8.04719 13.0883 8.04719 12.6978 8.43771C12.3073 8.82823 12.3073 9.4614 12.6978 9.85192L14.6479 11.802C15.0384 12.1925 15.6716 12.1925 16.0621 11.802C16.4526 11.4115 16.4526 10.7783 16.0621 10.3878L14.112 8.43771Z" fill="current" />
<path fill-rule="evenodd" clip-rule="evenodd" d="M18.3512 4.24347L17.6759 4.91876L17.6719 4.91468L17.3704 5.2161L17.3681 5.21857C17.3609 5.22571 17.3537 5.23267 17.3467 5.23992L17.3438 5.24281C16.8362 5.77624 16.8755 6.59064 17.4001 7.11526C17.9247 7.63987 18.739 7.67912 19.2725 7.17143L19.316 7.1289L20.2759 6.16816L20.495 6.38727C22.4476 8.33989 22.4476 11.5057 20.495 13.4583L14.0733 19.88C12.1207 21.8327 8.95489 21.8327 7.00227 19.88L6.77765 19.6554L7.33858 19.0945L7.34264 19.0985L7.62792 18.8133L7.62913 18.8145L7.67219 18.7714L7.67141 18.7706C8.1788 18.2372 8.13946 17.4231 7.61495 16.8985C7.08222 16.3658 6.25075 16.3336 5.71803 16.8663L5.71612 16.8692L5.7149 16.868L4.85296 17.7307L4.6339 17.5117C2.68128 15.5591 2.68128 12.3932 4.6339 10.4406L11.0556 4.01891C13.0082 2.06629 16.174 2.06629 18.1267 4.01891L18.3512 4.24347ZM16.1759 8.33787C17.1436 9.30554 18.6086 9.55235 19.7868 8.91743C20.1616 9.97397 19.9263 11.1986 19.0808 12.0441L18.3996 12.7253L18.0122 12.3379C17.6216 11.9473 16.9885 11.9473 16.598 12.3379C16.2074 12.7284 16.2074 13.3615 16.598 13.7521L16.9854 14.1395L12.6591 18.4658C11.8007 19.3242 10.5516 19.5537 9.48432 19.1542C10.0336 18.0001 9.77027 16.6067 8.83822 15.6746C7.90633 14.7427 6.51321 14.4794 5.35919 15.0283C4.96046 13.9613 5.1901 12.7128 6.04811 11.8548L10.3744 7.52853L10.7477 7.90185C11.1383 8.29237 11.7714 8.29237 12.1619 7.90185C12.5525 7.51132 12.5525 6.87816 12.1619 6.48763L11.7886 6.11431L12.4698 5.43312C13.3153 4.58767 14.5398 4.35233 15.5963 4.72711C14.9614 5.90528 15.2083 7.37023 16.1759 8.33787Z" fill="current" />
</svg>
