<svg width="24" height="24" viewBox="0 0 24 24" fill="current" xmlns="http://www.w3.org/2000/svg">
<path fill-rule="evenodd" clip-rule="evenodd" d="M12.0947 3.0005C10.3589 2.98224 8.65482 3.46635 7.18789 4.3945C5.72096 5.32265 4.55375 6.65523 3.82692 8.23164C3.10008 9.80804 2.84465 11.561 3.09139 13.2793C3.33814 14.9976 4.07653 16.6078 5.21759 17.916C5.58063 18.3322 5.53753 18.9639 5.12132 19.3269C4.70512 19.69 4.07343 19.6469 3.71039 19.2306C2.31576 17.6318 1.41328 15.6637 1.1117 13.5636C0.810121 11.4635 1.12232 9.32094 2.01067 7.39422C2.89903 5.4675 4.32562 3.8388 6.11854 2.70439C7.91145 1.56999 9.99417 0.978292 12.1157 1.00061C14.2372 1.02293 16.3071 1.6583 18.0757 2.83018C19.8444 4.00205 21.2364 5.6604 22.084 7.60538C22.9316 9.55036 23.1987 11.699 22.853 13.7923C22.5073 15.8856 21.5636 17.8342 20.1357 19.4034C19.764 19.8119 19.1315 19.8417 18.723 19.47C18.3146 19.0983 18.2848 18.4658 18.6565 18.0574C19.8248 16.7735 20.5969 15.1791 20.8797 13.4664C21.1626 11.7537 20.9441 9.99575 20.2506 8.4044C19.557 6.81305 18.4181 5.45622 16.971 4.49742C15.524 3.53861 13.8305 3.01876 12.0947 3.0005ZM12 6.62382L17.687 12.0006C18.0883 12.3801 18.1061 13.013 17.7267 13.4143C17.3472 13.8156 16.7143 13.8333 16.313 13.4539L13 10.3216V20C13 20.5523 12.5523 21 12 21C11.4477 21 11 20.5523 11 20V10.3216L7.68702 13.4539C7.2857 13.8333 6.65279 13.8156 6.27336 13.4143C5.89393 13.013 5.91168 12.3801 6.31299 12.0006L12 6.62382Z" fill="current" />
</svg>
