<svg width="24" height="24" viewBox="0 0 24 24" fill="current" xmlns="http://www.w3.org/2000/svg">
<path d="M14.4 20.7999C13.9582 20.4686 13.8686 19.8418 14.2 19.3999L16 16.9999L10 16.9999C7.027 16.9999 4.55904 14.8377 4.08296 11.9999L6.12602 11.9999C6.57006 13.7252 8.13616 14.9999 10 14.9999L20 14.9999L15.8 20.5999C15.4686 21.0418 14.8418 21.1313 14.4 20.7999Z" fill="current" />
<path d="M14 8.99994C15.8638 8.99994 17.4299 10.2747 17.874 11.9999L19.917 11.9999C19.441 9.16223 16.973 6.99994 14 6.99994L8 6.99994L9.8 4.59994C10.1314 4.15811 10.0418 3.53131 9.6 3.19994C9.15817 2.86857 8.53137 2.95811 8.2 3.39994L4 8.99994L14 8.99994Z" fill="current" />
</svg>
