<svg width="24" height="24" viewBox="0 0 24 24" fill="current" xmlns="http://www.w3.org/2000/svg">
<path d="M24 4.30078C23.1016 4.69922 22.1992 5 21.1992 5.10156C22.1992 4.5 23 3.5 23.3984 2.39844C22.3984 3 21.3984 3.39844 20.3008 3.60156C19.3008 2.60156 18 2 16.6016 2C13.8984 2 11.6992 4.19922 11.6992 6.89844C11.6992 7.30078 11.6992 7.69922 11.8008 8C7.69922 7.80078 4.10156 5.89844 1.69922 2.89844C1.19922 3.60156 1 4.5 1 5.39844C1 7.10156 1.89844 8.60156 3.19922 9.5C2.39844 9.39844 1.60156 9.19922 1 8.89844C1 8.89844 1 8.89844 1 9C1 11.3984 2.69922 13.3984 4.89844 13.8008C4.5 13.8984 4.10156 14 3.60156 14C3.30078 14 3 14 2.69922 13.8984C3.30078 15.8984 5.10156 17.3008 7.30078 17.3008C5.60156 18.6016 3.5 19.3984 1.19922 19.3984C0.800781 19.3984 0.398438 19.3984 0 19.3008C2.19922 20.6992 4.80078 21.5 7.5 21.5C16.6016 21.5 21.5 14 21.5 7.5C21.5 7.30078 21.5 7.10156 21.5 6.89844C22.5 6.19922 23.3008 5.30078 24 4.30078Z" fill="current" />
</svg>
