<svg width="24" height="24" viewBox="0 0 24 24" fill="current" xmlns="http://www.w3.org/2000/svg">
<path d="M16.3753 8.78098C16.8066 9.12599 17.4359 9.05606 17.7809 8.6248C18.1259 8.19354 18.056 7.56425 17.6247 7.21924L12 2.71948L6.37534 7.21924C5.94408 7.56425 5.87416 8.19354 6.21917 8.6248C6.56418 9.05606 7.19347 9.12598 7.62473 8.78097L12 5.28073L16.3753 8.78098Z" fill="current" />
<path d="M7.62473 16.2192C7.19347 15.8742 6.56418 15.9441 6.21917 16.3754C5.87416 16.8067 5.94408 17.436 6.37534 17.781L12 22.2807L17.6247 17.781C18.056 17.436 18.1259 16.8067 17.7809 16.3754C17.4359 15.9441 16.8066 15.8742 16.3753 16.2192L12 19.7195L7.62473 16.2192Z" fill="current" />
</svg>
