<svg width="24" height="24" viewBox="0 0 24 24" fill="current" xmlns="http://www.w3.org/2000/svg">
<path d="M12 13C11.1716 13 10.5 13.6716 10.5 14.5C10.5 15.3284 11.1716 16 12 16C12.8284 16 13.5 15.3284 13.5 14.5C13.5 13.6716 12.8284 13 12 13Z" fill="current" />
<path fill-rule="evenodd" clip-rule="evenodd" d="M7 6V8.53513C5.8044 9.22675 5 10.5194 5 12V17C5 19.2091 6.79086 21 9 21H15C17.2091 21 19 19.2091 19 17V12C19 10.5194 18.1956 9.22675 17 8.53513V6C17 3.79086 15.2091 2 13 2H11C8.79086 2 7 3.79086 7 6ZM13 4H11C9.89543 4 9 4.89543 9 6V8H15V6C15 4.89543 14.1046 4 13 4ZM7 12C7 10.8954 7.89543 10 9 10H15C16.1046 10 17 10.8954 17 12V17C17 18.1046 16.1046 19 15 19H9C7.89543 19 7 18.1046 7 17V12Z" fill="current" />
</svg>
