<svg width="24" height="24" viewBox="0 0 24 24" fill="current" xmlns="http://www.w3.org/2000/svg">
<path d="M15.3913 13.094C16.2029 12.6078 16.2029 11.3922 15.3913 10.906L10.8261 8.17112C10.0145 7.68492 9 8.29267 9 9.26509V14.7349C9 15.7073 10.0145 16.3151 10.8261 15.8289L15.3913 13.094Z" fill="current" />
<path fill-rule="evenodd" clip-rule="evenodd" d="M3 12C3 9.20435 3 7.80653 3.45672 6.7039C4.06569 5.23373 5.23373 4.06569 6.7039 3.45672C7.80653 3 9.20435 3 12 3C14.7956 3 16.1935 3 17.2961 3.45672C18.7663 4.06569 19.9343 5.23373 20.5433 6.7039C21 7.80653 21 9.20435 21 12C21 14.7956 21 16.1935 20.5433 17.2961C19.9343 18.7663 18.7663 19.9343 17.2961 20.5433C16.1935 21 14.7956 21 12 21C9.20435 21 7.80653 21 6.7039 20.5433C5.23373 19.9343 4.06569 18.7663 3.45672 17.2961C3 16.1935 3 14.7956 3 12ZM12 19C10.5748 19 9.60608 18.9989 8.85321 18.9475C8.1183 18.8974 7.73626 18.8061 7.46927 18.6955C6.48915 18.2895 5.71046 17.5108 5.30448 16.5307C5.19389 16.2637 5.10259 15.8817 5.05245 15.1468C5.00108 14.3939 5 13.4252 5 12C5 10.5748 5.00108 9.60608 5.05245 8.85321C5.10259 8.1183 5.19389 7.73626 5.30448 7.46927C5.71046 6.48915 6.48915 5.71046 7.46927 5.30448C7.73626 5.19389 8.1183 5.10259 8.85321 5.05245C9.60608 5.00108 10.5748 5 12 5C13.4252 5 14.3939 5.00108 15.1468 5.05245C15.8817 5.10259 16.2637 5.19389 16.5307 5.30448C17.5108 5.71046 18.2895 6.48915 18.6955 7.46927C18.8061 7.73626 18.8974 8.1183 18.9475 8.85321C18.9989 9.60608 19 10.5748 19 12C19 13.4252 18.9989 14.3939 18.9475 15.1468C18.8974 15.8817 18.8061 16.2637 18.6955 16.5307C18.2895 17.5108 17.5108 18.2895 16.5307 18.6955C16.2637 18.8061 15.8817 18.8974 15.1468 18.9475C14.3939 18.9989 13.4252 19 12 19Z" fill="current" />
</svg>
