<svg width="24" height="24" viewBox="0 0 24 24" fill="current" xmlns="http://www.w3.org/2000/svg">
<path d="M10.8261 15.8289L15.3913 13.094C16.2029 12.6078 16.2029 11.3922 15.3913 10.906L10.8261 8.17112C10.0145 7.68492 9 8.29267 9 9.26509V14.7349C9 15.7073 10.0145 16.3151 10.8261 15.8289Z" fill="current" />
<path fill-rule="evenodd" clip-rule="evenodd" d="M22 12C22 17.5228 17.5228 22 12 22C6.47715 22 2 17.5228 2 12C2 6.47715 6.47715 2 12 2C17.5228 2 22 6.47715 22 12ZM20 12C20 16.4183 16.4183 20 12 20C7.58172 20 4 16.4183 4 12C4 7.58172 7.58172 4 12 4C16.4183 4 20 7.58172 20 12Z" fill="current" />
</svg>
