<svg width="24" height="24" viewBox="0 0 24 24" fill="current" xmlns="http://www.w3.org/2000/svg">
<path d="M17 15C18.1046 15 19 14.1046 19 13C19 11.8954 18.1046 11 17 11C15.8954 11 15 11.8954 15 13C15 14.1046 15.8954 15 17 15Z" fill="current" />
<path fill-rule="evenodd" clip-rule="evenodd" d="M13.4647 2.70426C14.7391 2.35026 16 3.30865 16 4.63129V5.00001H18C20.2091 5.00001 22 6.79087 22 9.00001V17C22 19.2091 20.2091 21 18 21H6C3.79086 21 2 19.2091 2 17V9.00001C2 6.79087 3.79086 5.00001 6 5.00001H7.67793C8.10178 4.44664 8.70112 4.02748 9.40879 3.8309L13.4647 2.70426ZM18 7.00001C19.1046 7.00001 20 7.89544 20 9.00001V17C20 18.1046 19.1046 19 18 19H6C4.89543 19 4 18.1046 4 17V9.00001C4 7.89544 4.89543 7.00001 6 7.00001H18Z" fill="current" />
</svg>
