<svg width="24" height="24" viewBox="0 0 24 24" fill="current" xmlns="http://www.w3.org/2000/svg">
<path fill-rule="evenodd" clip-rule="evenodd" d="M14.6116 2.62075C13.4632 0.58898 10.5366 0.588982 9.38821 2.62075L1.52991 16.5239C0.399542 18.5238 1.84437 21.0001 4.1416 21.0001H19.8582C22.1554 21.0001 23.6002 18.5238 22.4699 16.5239L14.6116 2.62075ZM12.4125 6.48013C13.0041 6.48013 13.4664 6.99095 13.4076 7.57964L12.8344 13.3114C12.7915 13.7399 12.4309 14.0662 12.0003 14.0662C11.5696 14.0662 11.209 13.7399 11.1662 13.3114L10.593 7.57963C10.5341 6.99095 10.9964 6.48013 11.588 6.48013H12.4125ZM10.4829 17.1007C10.4829 16.2627 11.1622 15.5834 12.0001 15.5834C12.838 15.5834 13.5173 16.2627 13.5173 17.1007C13.5173 17.9386 12.838 18.6179 12.0001 18.6179C11.1622 18.6179 10.4829 17.9386 10.4829 17.1007Z" fill="current" />
</svg>
