<svg width="24" height="24" viewBox="0 0 24 24" fill="current" xmlns="http://www.w3.org/2000/svg">
<path d="M12.4124 6.47998C13.004 6.47998 13.4663 6.9908 13.4074 7.57948L12.8342 13.3112C12.7914 13.7398 12.4308 14.0661 12.0001 14.0661C11.5695 14.0661 11.2089 13.7398 11.1661 13.3112L10.5929 7.57948C10.534 6.9908 10.9963 6.47998 11.5879 6.47998H12.4124Z" fill="current" />
<path d="M10.4827 17.1005C10.4827 16.2626 11.162 15.5833 12 15.5833C12.8379 15.5833 13.5172 16.2626 13.5172 17.1005C13.5172 17.9385 12.8379 18.6177 12 18.6177C11.162 18.6177 10.4827 17.9385 10.4827 17.1005Z" fill="current" />
<path fill-rule="evenodd" clip-rule="evenodd" d="M9.3853 2.02507C10.5322 -0.0138891 13.4678 -0.0138893 14.6148 2.02507L23.1402 17.1814C24.2651 19.1812 22.82 21.6522 20.5255 21.6522H3.47458C1.1801 21.6522 -0.265038 19.1812 0.859856 17.1814L9.3853 2.02507ZM12.8716 3.00559L21.397 18.1619C21.772 18.8285 21.2903 19.6522 20.5255 19.6522H3.47458C2.70976 19.6522 2.22804 18.8285 2.60301 18.1619L11.1285 3.00559C11.5108 2.32594 12.4893 2.32594 12.8716 3.00559Z" fill="current" />
</svg>
