<svg width="24" height="24" viewBox="0 0 24 24" fill="current" xmlns="http://www.w3.org/2000/svg">
<path d="M6.09247 5.3542C6.13127 5.30655 6.17289 5.26044 6.21661 5.2167L4.31802 3.31812L4.31656 3.31957C3.8248 3.81178 3.45577 4.40936 3.23535 5.06387C3.17404 5.24592 3.12422 5.43237 3.08647 5.62219C2.91283 6.4951 3.00195 7.3999 3.34254 8.22217C3.68314 9.04444 4.25992 9.74724 4.99994 10.2417C5.31282 10.4508 5.64895 10.6186 6 10.7427V19.5001C6 20.3285 6.67157 21.0001 7.5 21.0001C8.32843 21.0001 9 20.3285 9 19.5001V10.7427C9.35105 10.6186 9.68718 10.4508 10.0001 10.2417C10.7401 9.74724 11.3169 9.04444 11.6575 8.22217C11.9981 7.3999 12.0872 6.4951 11.9135 5.62219C11.8758 5.43237 11.826 5.24592 11.7647 5.06387C11.544 4.40872 11.1745 3.8106 10.682 3.31812L8.7834 5.2167C8.82723 5.26053 8.86864 5.30643 8.90753 5.3542C9.09386 5.58307 9.22218 5.85473 9.28012 6.14601C9.35016 6.49808 9.31421 6.86302 9.17684 7.19466C9.03947 7.52631 8.80683 7.80978 8.50836 8.00921C8.20989 8.20864 7.85897 8.31509 7.5 8.31509C7.14103 8.31509 6.79012 8.20864 6.49164 8.00921C6.19317 7.80978 5.96054 7.52631 5.82316 7.19466C5.68579 6.86302 5.64985 6.49808 5.71988 6.14601C5.77782 5.85473 5.90614 5.58307 6.09247 5.3542Z" fill="current" />
<path d="M19 6.00011V10.0001H19.9753C19.9889 10.0001 20 10.0112 20 10.0248C20 10.1314 19.9916 10.236 19.9753 10.338C19.8793 10.9406 19.5108 11.4524 19 11.7429C18.7126 11.9064 18.3802 11.9999 18.026 12.0001L18 12.0001V17.0001H18.382C19.1253 17.0001 19.6088 17.7824 19.2764 18.4473L18 21.0001H16L14.7236 18.4473C14.3912 17.7824 14.8747 17.0001 15.618 17.0001H16V12.0001L15.9738 12.0001C15.6197 11.9998 15.2873 11.9064 15 11.7429C14.4892 11.4524 14.1207 10.9406 14.0247 10.338C14.0084 10.236 14 10.1314 14 10.0248C14 10.0111 14.0111 10.0001 14.0247 10.0001H15V6.00011C15 4.89554 15.8954 4.00011 17 4.00011C18.1046 4.00011 19 4.89555 19 6.00011Z" fill="current" />
</svg>
