<svg width="167" height="166" viewBox="0 0 167 166" fill="none" xmlns="http://www.w3.org/2000/svg">
<circle cx="83.5" cy="83" r="83" fill="#EFF0F6"/>
<mask id="mask0" mask-type="alpha" maskUnits="userSpaceOnUse" x="0" y="0" width="167" height="166">
<circle cx="83.5" cy="83" r="83" fill="#EFF0F6"/>
</mask>
<g mask="url(#mask0)">
<path d="M147.904 90.3332C147.519 90.0474 165.126 99.0017 170.255 103.32C170.448 103.479 170.672 103.606 170.897 103.765C170.897 124.499 170.897 145.266 170.897 166C170.255 165.968 169.614 165.937 168.973 165.937C129.826 165.937 83.7164 165.937 44.5693 165.937C43.9281 165.937 43.2868 165.905 42.6456 165.905C42.5494 165.683 42.0364 165.46 42.7418 165.333C43.6075 165.206 44.5693 165.206 45.2747 164.54C52.1038 157.776 58.9329 151.013 65.7619 144.25C66.0184 143.996 66.4352 143.773 66.2429 143.329C66.0826 142.948 65.6337 142.916 65.281 142.884C64.8001 142.852 64.3192 142.852 63.8383 142.852C54.861 142.852 45.9159 142.852 36.9387 142.852C36.3295 142.852 35.6562 143.075 34.9829 142.44C35.56 141.995 36.073 141.582 36.618 141.201C40.7219 138.375 44.8579 135.581 48.9297 132.723C51.8152 130.691 54.7328 128.786 58.4519 128.786C59.0932 128.786 59.542 128.405 59.8626 127.865C61.6581 124.626 63.6459 121.514 65.1207 118.117C66.1467 117.101 66.6597 115.735 67.365 114.497C70.6032 108.782 73.8094 103.066 76.9835 97.3188C77.4965 96.398 78.0736 96.0487 79.0995 96.0804C80.5423 96.144 81.9851 96.0487 83.3958 96.0169C86.2492 96.0487 89.1027 96.0487 91.9562 96.0804C97.7914 96.144 103.595 96.2392 109.43 96.0169C111.834 96.0487 114.271 96.0487 116.676 96.0804C116.611 96.5567 116.74 97.033 116.932 97.4776C119.882 103.447 122.831 109.417 125.749 115.386C126.166 116.244 126.775 116.434 127.673 116.434C130.719 116.402 133.764 116.434 136.81 116.434C138.542 116.434 140.273 116.434 142.004 116.434C141.652 115.862 141.235 115.608 140.754 115.418C135.111 113.036 129.468 110.687 123.825 108.337C123.409 108.147 122.703 108.178 122.639 107.67C122.543 107.067 123.248 106.876 123.665 106.591C129.628 102.368 135.656 98.1761 141.619 93.953C143.415 92.6829 145.371 91.6033 146.878 89.9521C147.102 89.9839 147.294 90.0157 147.519 90.0474C147.711 90.1427 147.807 90.2379 147.904 90.3332ZM84.6782 143.043C84.6462 143.17 84.6462 143.329 84.6141 143.456C86.9225 145.17 89.263 146.822 91.5073 148.568C92.4051 149.266 93.3348 149.489 94.457 149.489C98.9456 149.457 103.434 149.489 107.923 149.457C108.788 149.457 109.59 149.552 110.424 149.87C112.764 150.759 115.169 151.521 117.509 152.347C118.503 152.696 119.273 152.601 120.202 151.997C123.441 149.838 126.743 147.838 129.981 145.71C131.232 144.885 132.642 144.281 133.861 143.011C117.253 143.043 100.965 143.043 84.6782 143.043Z" fill="#A6A9C3"/>
<path d="M65.1858 118.116C63.711 121.514 61.7232 124.626 59.9277 127.865C59.6392 128.404 59.1582 128.785 58.517 128.785C54.7658 128.785 51.8803 130.691 48.9947 132.723C44.9229 135.581 40.787 138.375 36.6831 141.201C36.1381 141.582 35.6251 141.995 35.048 142.439C35.7213 143.074 36.3946 142.852 37.0037 142.852C45.9809 142.884 54.9261 142.852 63.9033 142.852C64.3843 142.852 64.8652 142.852 65.3461 142.884C65.6988 142.915 66.1476 142.947 66.308 143.328C66.5003 143.741 66.0835 143.995 65.827 144.249C58.9979 151.012 52.1688 157.776 45.3397 164.539C44.6344 165.238 43.7046 165.206 42.8069 165.333C42.0695 165.46 42.6145 165.682 42.7107 165.905C42.0053 165.936 41.332 165.968 40.6267 165.968C33.3167 165.968 -33.4253 166 -40.7354 166C-40.7354 150.028 -40.7354 134.025 -40.7354 118.053C-25.6023 118.053 48.9627 118.053 64.0957 118.053C64.4484 118.053 64.8011 118.085 65.1858 118.116ZM32.7395 143.011C33.0602 142.947 34.0541 143.042 33.509 141.836C32.8999 140.439 32.2586 139.042 31.5533 137.676C31.1685 136.914 27.6738 135.422 26.9044 135.644C26.712 135.708 26.4876 135.835 26.3914 135.993C24.9807 138.089 23.3776 140.089 22.1272 142.312C21.8386 142.82 21.9348 143.106 22.6081 143.042C25.8784 142.725 29.1166 142.82 32.7395 143.011Z" fill="#D9DBE9"/>
<path d="M101.222 77.8542C101.286 78.3305 101.318 78.8385 101.382 79.3148H101.415C101.286 79.3466 101.158 79.3465 101.03 79.3783C95.419 79.3465 89.8082 79.3466 84.1975 79.3148C84.0372 73.0277 84.5181 66.7724 84.6143 60.5171C84.6463 59.628 84.3578 58.5802 85.1593 57.8181C85.6723 57.8499 86.2174 57.8816 86.7624 57.8816C91.2831 57.9134 95.8358 57.9134 100.356 57.9451C100.613 63.6606 100.869 69.3444 101.158 75.0599C101.03 75.9808 100.966 76.9333 101.222 77.8542Z" fill="#A6A9C3"/>
<path d="M146.975 89.9525C145.468 91.6036 143.513 92.6832 141.717 93.9533C135.754 98.1765 129.726 102.368 123.763 106.591C123.378 106.877 122.641 107.067 122.737 107.671C122.833 108.147 123.506 108.147 123.923 108.337C129.566 110.687 135.209 113.069 140.852 115.418C141.3 115.609 141.749 115.895 142.102 116.434C140.371 116.434 138.639 116.434 136.908 116.434C133.862 116.434 130.816 116.403 127.771 116.434C126.873 116.434 126.264 116.244 125.847 115.387C122.929 109.417 119.98 103.447 117.03 97.4779C116.805 97.0333 116.709 96.5888 116.773 96.0808C117.383 95.668 117.96 95.2234 118.601 94.8424C121.166 93.1595 123.955 91.8259 126.36 89.889V89.7937H126.456C132.676 89.7937 138.896 89.7937 145.116 89.8255C145.725 89.8255 146.334 89.9207 146.975 89.9525Z" fill="#D9DBE9"/>
<path d="M103.274 35.2412C103.146 36.3843 101.992 36.4796 101.383 37.1146C100.773 37.7179 99.9077 38.0037 99.4589 38.7975C98.8497 39.1468 98.497 39.7501 98.0802 40.2899C93.7198 46.0054 89.3915 51.721 85.0312 57.4682C84.422 55.182 84.8388 52.8641 84.9029 50.5779C84.9991 46.7675 85.1594 42.9889 85.3197 39.2103C85.3518 38.6705 84.9991 38.3847 84.6785 38.0355C83.8128 37.0511 82.5304 36.4796 81.8892 35.273C89.0068 35.2412 96.1565 35.2412 103.274 35.2412Z" fill="#D9DBE9"/>
<path d="M84.165 79.3152C89.7757 79.3469 95.3865 79.3469 100.997 79.3787C99.0736 81.6649 97.2461 84.0781 95.1621 86.2373C92.9178 88.5235 91.5071 90.905 92.1162 94.2073C92.2124 94.8106 92.0842 95.4774 92.0521 96.0807C89.1986 96.0489 86.3452 96.049 83.4917 96.0172C83.6841 90.4604 83.9406 84.8719 84.165 79.3152Z" fill="white"/>
<path d="M101.382 79.315C106.769 79.315 112.155 79.315 117.573 79.2832C118.183 79.2832 118.663 79.3785 119.08 79.9183C121.485 83.0618 123.922 86.2053 126.358 89.3489C126.454 89.4441 126.39 89.6346 126.422 89.7934H126.326V89.8887C120.715 89.8887 115.073 89.8887 109.462 89.9204C109.205 89.5711 108.981 89.2218 108.724 88.9043C106.288 85.6973 103.627 82.649 101.382 79.315Z" fill="#A6A9C3"/>
<path d="M85.0308 57.4685C89.3911 51.753 93.7194 46.0375 98.0798 40.2902C98.4966 39.7504 98.8493 39.1471 99.4584 38.7979C99.779 44.6404 100.068 50.5147 100.388 56.3572C100.42 56.8652 100.356 57.405 100.324 57.9131C95.8034 57.8813 91.2507 57.8813 86.73 57.8496C86.185 57.8496 85.672 57.7861 85.1269 57.7861C85.0949 57.6908 85.0628 57.5955 85.0308 57.4685Z" fill="white"/>
<path d="M103.274 35.242C96.1566 35.242 89.0069 35.242 81.8892 35.2738C81.2159 34.2894 81.5365 33.2098 81.6006 32.1937C81.6327 31.3999 82.3381 31.4634 82.9472 31.4317C86.0251 31.2729 86.0251 31.2729 86.0251 28.1929C86.0251 26.6052 86.0251 25.0176 86.0251 23.43C87.0832 23.4617 88.1412 23.4617 89.1992 23.4935C89.1992 25.6527 89.2634 27.8119 89.1672 29.971C89.1351 31.1141 89.5519 31.4634 90.642 31.3999C91.8603 31.3364 93.1107 31.3047 94.3291 31.3999C95.8039 31.5269 96.1566 30.7966 95.9001 29.6218C95.4512 27.5896 95.7077 25.5256 95.6115 23.4617C96.7658 23.43 97.92 23.3982 99.0742 23.3665C99.0742 25.6209 99.1062 27.8754 99.0742 30.1298C99.0421 31.0824 99.4269 31.4634 100.389 31.3999C100.902 31.3682 101.447 31.3682 101.992 31.3999C102.665 31.4634 103.755 31.0824 103.851 32.0985C103.915 33.1463 104.589 34.4164 103.274 35.242Z" fill="white"/>
<path d="M89.1987 23.4616C88.1406 23.4299 87.0826 23.4299 86.0246 23.3981C85.5437 20.5086 86.249 18.0001 88.7819 16.2855C90.93 14.8248 93.3346 14.6978 95.611 15.9362C98.5606 17.5238 99.3301 20.2228 99.1057 23.3664C97.9515 23.3981 96.7973 23.4299 95.643 23.4616C93.4949 23.3028 91.3468 23.3028 89.1987 23.4616Z" fill="#A6A9C3"/>
<path d="M101.223 77.8543C100.967 76.9335 101.031 75.9809 101.095 75.0283C101.48 75.9809 101.384 76.9017 101.223 77.8543Z" fill="#D9DBE9"/>
<path d="M147.905 90.3324C147.809 90.2371 147.712 90.1419 147.616 90.0466C147.809 90.0466 147.905 90.1419 147.905 90.3324Z" fill="#00A7BD"/>
<path d="M84.6784 143.043C100.966 143.043 117.253 143.043 133.861 143.043C132.642 144.313 131.232 144.948 129.981 145.742C126.743 147.869 123.409 149.87 120.203 152.029C119.273 152.632 118.503 152.728 117.509 152.378C115.169 151.521 112.764 150.759 110.424 149.902C109.59 149.584 108.789 149.489 107.923 149.489C103.434 149.489 98.9458 149.457 94.4571 149.521C93.335 149.521 92.4373 149.298 91.5075 148.6C89.2632 146.822 86.9227 145.17 84.6143 143.488C84.6463 143.329 84.6463 143.202 84.6784 143.043Z" fill="#D9DBE9"/>
<path d="M101.415 79.3152C103.627 82.6492 106.288 85.6658 108.693 88.8728C108.949 89.2221 109.174 89.5396 109.43 89.8889C109.462 91.9211 109.495 93.9533 109.495 95.9855C103.659 96.176 97.8562 96.0807 92.021 96.049C92.053 95.4139 92.2134 94.7788 92.0851 94.1755C91.508 90.905 92.9187 88.4918 95.131 86.2056C97.215 84.0781 99.0425 81.6331 100.966 79.3469C101.126 79.3469 101.287 79.3469 101.415 79.3152Z" fill="#D9DBE9"/>
<path d="M109.493 96.017C109.461 93.9848 109.429 91.9526 109.429 89.9204C115.072 89.9204 120.683 89.9204 126.294 89.8887C123.889 91.8256 121.1 93.1592 118.535 94.8421C117.925 95.2549 117.316 95.6677 116.707 96.0805C114.335 96.0487 111.93 96.0487 109.493 96.017Z" fill="white"/>
<path d="M32.74 143.011C29.1171 142.852 25.8789 142.725 22.6406 143.043C21.9674 143.106 21.8712 142.82 22.1597 142.312C23.3781 140.09 24.9811 138.089 26.4239 135.993C26.5201 135.835 26.7445 135.708 26.9369 135.644C27.7064 135.422 31.2011 136.914 31.5858 137.676C32.2591 139.042 32.9003 140.439 33.5416 141.836C34.0545 143.043 33.0606 142.916 32.74 143.011Z" fill="#A6A9C3"/>
</g>
</svg>
