<svg width="136" height="42" viewBox="0 0 136 42" fill="current" xmlns="http://www.w3.org/2000/svg">
<path d="M8.51417 6C7.12563 6 6 7.12563 6 8.51417V32.6806C6 33.1531 6.13031 33.5951 6.35694 33.9727L6.24546 34.0841L7.43065 35.2693L7.65559 35.0444C7.9235 35.1417 8.21263 35.1948 8.51417 35.1948H40.3603C41.7488 35.1948 42.8744 34.0692 42.8744 32.6806V24.1172H41.1983V32.6806C41.1983 33.1435 40.8231 33.5187 40.3603 33.5187H9.18129L17.0776 25.6224L19.9574 28.5023L27.957 20.5027L33.0881 25.6337L41.1985 17.2114V20.9173H42.8746V14.3195H36.2768V15.9956H40.0423L33.0655 23.2407L27.957 18.1323L19.9574 26.1319L17.0776 23.252L7.67611 32.6535V8.51417C7.67611 8.05132 8.05132 7.67611 8.51417 7.67611H40.3603C40.8231 7.67611 41.1983 8.05132 41.1983 8.51417V11.3178H42.8744V8.51417C42.8744 7.12563 41.7488 6 40.3603 6H8.51417Z" fill="current" />
<path fill-rule="evenodd" clip-rule="evenodd" d="M16.7576 20.2774C19.4085 20.2774 21.5574 18.1285 21.5574 15.4776C21.5574 12.8268 19.4085 10.6778 16.7576 10.6778C14.1068 10.6778 11.9578 12.8268 11.9578 15.4776C11.9578 18.1285 14.1068 20.2774 16.7576 20.2774ZM16.7576 18.6013C18.4828 18.6013 19.8813 17.2028 19.8813 15.4776C19.8813 13.7525 18.4828 12.354 16.7576 12.354C15.0325 12.354 13.634 13.7525 13.634 15.4776C13.634 17.2028 15.0325 18.6013 16.7576 18.6013Z" fill="current" />
<path d="M65.2427 17.2456H66.9322L63.2481 9.03262H61.5586L57.8745 17.2456H59.5523L60.2563 15.6968H64.5505L65.2427 17.2456ZM63.9286 14.2537H60.8781L62.4034 10.7573L63.9286 14.2537Z" fill="current" />
<path d="M75.6886 17.14L73.2013 14.3358C74.7617 14.0191 75.278 12.881 75.278 11.7546C75.278 10.335 74.2572 9.04436 72.3213 9.03262C71.019 9.03262 69.7166 9.02089 68.4143 9.02089V17.2456H69.963V14.5001H71.5352L73.917 17.2456H75.6886V17.14ZM72.3213 10.4758C73.2951 10.4758 73.7292 11.1328 73.7292 11.7898C73.7292 12.4469 73.3069 13.1039 72.3213 13.1039H69.963V10.4758H72.3213Z" fill="current" />
<path d="M79.1239 17.2456H80.6727V10.4406H83.2773V9.03262C80.8956 9.03262 78.8893 9.03262 76.5193 9.03262V10.4406H79.1239V17.2456Z" fill="current" />
<path d="M94.0271 10.3819C93.4053 9.11475 92.0795 8.75104 90.8006 8.75104C89.2871 8.76277 87.621 9.455 87.621 11.1445C87.621 12.9866 89.1698 13.4324 90.8475 13.6319C91.9387 13.7492 92.7483 14.066 92.7483 14.8403C92.7483 15.732 91.8331 16.0723 90.8593 16.0723C89.862 16.0723 88.9116 15.6734 88.5479 14.77L87.2573 15.4387C87.8674 16.9405 89.158 17.4568 90.8358 17.4568C92.6661 17.4568 94.2853 16.6707 94.2853 14.8403C94.2853 12.881 92.6896 12.4351 90.9766 12.2239C89.9911 12.1066 89.1463 11.9072 89.1463 11.1915C89.1463 10.5814 89.6977 10.1003 90.8475 10.1003C91.7392 10.1003 92.5136 10.5462 92.7952 11.0155L94.0271 10.3819Z" fill="current" />
<path d="M97.9935 17.2456H99.5423V10.4406H102.147V9.03262C99.7652 9.03262 97.7589 9.03262 95.3889 9.03262V10.4406H97.9935V17.2456Z" fill="current" />
<path d="M107.377 8.86837C104.995 8.86837 103.118 10.6048 103.118 13.1978C103.118 15.3566 104.455 17.4333 107.342 17.4333C110.228 17.4333 111.53 15.3097 111.554 13.186C111.577 11.0507 110.181 8.89183 107.377 8.86837ZM104.643 13.2212C104.596 11.5904 105.629 10.2763 107.377 10.2763C109.266 10.3115 110.052 11.8368 110.028 13.2095C110.005 14.5588 109.278 16.0136 107.342 16.0136C105.406 16.0136 104.678 14.5705 104.643 13.2212Z" fill="current" />
<path d="M119.424 15.1454C118.884 15.6851 118.074 15.9784 117.359 15.9784C115.329 15.9784 114.543 14.5588 114.531 13.1978C114.519 11.825 115.376 10.3467 117.359 10.3467C118.074 10.3467 118.802 10.5931 119.341 11.1211L120.374 10.1238C119.529 9.29075 118.473 8.86837 117.359 8.86837C114.39 8.86837 112.994 11.0507 113.006 13.1978C113.017 15.3331 114.308 17.4333 117.359 17.4333C118.544 17.4333 119.635 17.0461 120.479 16.2131L119.424 15.1454Z" fill="current" />
<path d="M128.753 9.03262H126.829L123.708 12.5055V9.03262H122.16V17.2456H123.708V13.6084L127.146 17.2456H129.058V17.1517L125.104 13.01L128.753 9.07956V9.03262Z" fill="current" />
<path d="M64.9611 30.8053H60.3501V28.9515H64.7968V27.5084H60.3501V25.6194H64.9611V24.1176H58.8131C58.8131 26.8514 58.8131 29.5968 58.8131 32.3306H64.9611V30.8053Z" fill="current" />
<path d="M70.2178 27.1799L68.1646 24.1176H66.4634V24.188L69.2323 28.1772L66.3812 32.2836V32.3306H68.1177L70.2178 29.2448L72.318 32.3306H74.0545V32.2836L71.1917 28.1772L73.9723 24.188V24.1176H72.2711L70.2178 27.1799Z" fill="current" />
<path d="M81.3828 30.2304C80.8431 30.7701 80.0335 31.0634 79.3178 31.0634C77.288 31.0634 76.5019 29.6438 76.4902 28.2828C76.4785 26.91 77.335 25.4317 79.3178 25.4317C80.0335 25.4317 80.7609 25.6781 81.3006 26.2061L82.3331 25.2088C81.4884 24.3757 80.4324 23.9534 79.3178 23.9534C76.3494 23.9534 74.9532 26.1357 74.9649 28.2828C74.9767 30.4181 76.2673 32.5183 79.3178 32.5183C80.5028 32.5183 81.594 32.1311 82.4387 31.2981L81.3828 30.2304Z" fill="current" />
<path d="M91.4166 32.3423V24.1294H89.8796V27.5905H85.8435V24.1294H84.2948V32.3423H85.8435V29.0219H89.8796V32.3423H91.4166Z" fill="current" />
<path d="M100.444 32.3306H102.134L98.4496 24.1176H96.7601L93.076 32.3306H94.7538L95.4578 30.7818H99.752L100.444 32.3306ZM99.1302 29.3387H96.0796L97.6049 25.8423L99.1302 29.3387Z" fill="current" />
<path d="M105.047 24.1176H103.792V32.3306H105.341V26.8631L109.705 32.3306H110.961V24.1176H109.412V29.6438L105.047 24.1176Z" fill="current" />
<path d="M120.468 25.1384C119.623 24.3053 118.52 23.883 117.418 23.883C114.52 23.883 113.076 26.0183 113.076 28.3297C113.076 30.4885 114.332 32.5183 117.418 32.5183C118.861 32.5183 119.881 31.9668 120.691 31.04V27.5788H117.171V28.9633H119.271V30.4181C118.626 30.9344 118.063 31.0752 117.418 31.0752C115.376 31.0752 114.59 29.679 114.59 28.3297C114.59 26.6402 115.658 25.3026 117.418 25.3026C118.133 25.3026 118.955 25.5959 119.506 26.1239L120.468 25.1384Z" fill="current" />
<path d="M129.07 30.8053H124.459V28.9515H128.906V27.5084H124.459V25.6194H129.07V24.1176H122.922C122.922 26.8514 122.922 29.5968 122.922 32.3306H129.07V30.8053Z" fill="current" />
</svg>
