<svg xmlns="http://www.w3.org/2000/svg" width="23.784" height="23.784" viewBox="0 0 23.784 23.784">
  <path fill="current"#fff"
    d="M11.892,0A11.892,11.892,0,1,0,23.784,11.892,11.892,11.892,0,0,0,11.892,0Zm0,22.3A10.417,10.417,0,1,1,22.3,11.892,10.417,10.417,0,0,1,11.892,22.3Z" />
  <path fill="current"#fff"
    d="M146.833,96.168a.738.738,0,0,0-1.051,0,.756.756,0,0,0,0,1.062l4.6,4.671-4.605,4.671a.756.756,0,0,0,0,1.062.738.738,0,0,0,1.051,0l5.128-5.2a.771.771,0,0,0,0-1.062Z"
    transform="translate(-136.57 -90.02)" />
</svg>