<svg xmlns="http://www.w3.org/2000/svg" width="14.653" height="12.341" viewBox="0 0 14.653 12.341">
  <path class="a"
        d="M10.855,58.338a.368.368,0,0,1-.324-.182.379.379,0,0,1-.018-.371l.88-1.763H7.383A.382.382,0,0,1,7,55.639V46.383A.382.382,0,0,1,7.383,46H21.271a.382.382,0,0,1,.383.383v9.26a.382.382,0,0,1-.383.383H17.26l.88,1.763a.371.371,0,0,1-.018.371.379.379,0,0,1-.327.182H10.855Zm.618-.765h5.708l-.774-1.551H12.249ZM7.765,55.26H20.888V46.765H7.765Z"
        transform="translate(-7 -46)"/>
</svg>