<svg xmlns="http://www.w3.org/2000/svg" width="25.082" height="23.36" viewBox="0 0 25.082 23.36">
  <path class="a"
        d="M52.037,103.9a.754.754,0,0,0-.748.748v12.469H36.1V104.648a.748.748,0,0,0-1.5,0v13.227a.754.754,0,0,0,.748.748H52.027a.754.754,0,0,0,.748-.748V104.648A.739.739,0,0,0,52.037,103.9Z"
        transform="translate(-31.151 -95.264)"/>
  <path class="a"
        d="M24.891,29.333,13.09,17.542a.753.753,0,0,0-1.057,0L.242,29.333a.753.753,0,0,0,0,1.057.747.747,0,0,0,1.057,0L12.562,19.128,23.824,30.39a.753.753,0,0,0,1.057,0A.744.744,0,0,0,24.891,29.333Z"
        transform="translate(-0.025 -17.325)"/>
</svg>