<svg xmlns="http://www.w3.org/2000/svg" width="23.266" height="22.653" viewBox="0 0 23.266 22.653">
  <path class="a"
        d="M31.852,12.561V8.526a2.188,2.188,0,1,0-1.089,0v4.035a3.653,3.653,0,0,0-2.653,1.858l-2.395-1.861a1.581,1.581,0,1,0-.7.838l2.707,2.1a3.627,3.627,0,0,0,.651,2.826l-3.06,3.06a.544.544,0,0,0,.77.77l3.06-3.06a3.625,3.625,0,0,0,1.617.672v4.044a1.578,1.578,0,1,0,1.089,0V19.767a3.644,3.644,0,0,0,0-7.206Zm-7.624-.041a.49.49,0,1,1,.49-.49A.49.49,0,0,1,24.227,12.52Zm5.98-6.114a1.1,1.1,0,1,1,1.1,1.1A1.1,1.1,0,0,1,30.208,6.406Zm1.1,19.376a.49.49,0,0,1-.1-.969.522.522,0,0,0,.2,0,.49.49,0,0,1-.1.969Zm0-7.063a2.554,2.554,0,0,1-2.452-3.271c0-.011.007-.022.01-.034a2.555,2.555,0,1,1,2.442,3.3Z"
        transform="translate(-21.005 -4.218)"/>
  <path class="a"
        d="M207.5,95.953a2.191,2.191,0,0,0-2.188,2.188c0,.056,0,.112.007.167l-3.937,1.342a.544.544,0,1,0,.351,1.031l3.937-1.342a2.188,2.188,0,1,0,1.83-3.386Zm0,3.288a1.1,1.1,0,1,1,1.1-1.1A1.1,1.1,0,0,1,207.5,99.241Z"
        transform="translate(-186.422 -89.294)"/>
  <path class="a"
        d="M2.188,250.44a2.188,2.188,0,1,0,2.188,2.188A2.191,2.191,0,0,0,2.188,250.44Zm0,3.288a1.1,1.1,0,1,1,1.1-1.1A1.1,1.1,0,0,1,2.188,253.728Z"
        transform="translate(0 -232.568)"/>
</svg>