<svg xmlns="http://www.w3.org/2000/svg" width="32.732" height="22.912" viewBox="0 0 32.732 22.912">
  <path class="a"
        d="M16.966-30.866h0a2.9,2.9,0,0,0,2-.763c1.241-1.336.954-3.913.954-3.913h0c-.1-2.577-1.813-2.958-2.863-2.958h0c-.859,0-2.767.286-2.863,2.958h0s-.286,2.577.954,3.913A2.164,2.164,0,0,0,16.966-30.866Z"
        transform="translate(-0.648 44.417)"/>
  <path class="b"
        d="M16.816-29.871h.1a3.465,3.465,0,0,0,2.672-1.145,6.435,6.435,0,0,0,1.145-4.676,3.942,3.942,0,0,0-1.813-3.435,3.756,3.756,0,0,0-2-.573h-.1a4.762,4.762,0,0,0-2,.477A3.834,3.834,0,0,0,13-35.787c0,.286-.286,3.054,1.145,4.676A3.52,3.52,0,0,0,16.816-29.871Zm-2.767-5.821h0c.1-2.767,2-3.054,2.863-3.054h0a2.73,2.73,0,0,1,2.863,2.958h0s.286,2.577-.954,3.913a2.166,2.166,0,0,1-1.909.763h0A2.664,2.664,0,0,1,15-31.875C13.762-33.02,14.049-35.6,14.049-35.692Z"
        transform="translate(-0.593 44.471)"/>
  <path class="b"
        d="M24.268-26.1h-.382a5.138,5.138,0,0,0-.763-.1,2.59,2.59,0,0,1,.286,1.527v.1a4.646,4.646,0,0,1-.1,1.145,13.125,13.125,0,0,1-6.584,1.527,14.211,14.211,0,0,1-6.584-1.527,4.646,4.646,0,0,1-.1-1.145v-.1a3.486,3.486,0,0,1,.286-1.431c-.286,0-.859.1-1.145.1A3.265,3.265,0,0,0,9-24.769v.1H9a5.284,5.284,0,0,0,.191,1.718.205.205,0,0,0,.191.191,14.011,14.011,0,0,0,7.348,1.813,14.237,14.237,0,0,0,7.348-1.813c.1-.1.191-.1.191-.191a10.515,10.515,0,0,0,.191-1.718h0v-.1A8.9,8.9,0,0,0,24.268-26.1Z"
        transform="translate(-0.412 43.854)"/>
  <path class="a"
        d="M7.966-35.866h0a2.9,2.9,0,0,0,2-.763c1.241-1.336.954-3.913.954-3.913h0c-.1-2.577-1.813-2.958-2.863-2.958h0c-.859,0-2.767.286-2.863,2.958h0s-.286,2.577.954,3.913A2.164,2.164,0,0,0,7.966-35.866Z"
        transform="translate(-0.236 44.645)"/>
  <path class="b"
        d="M7.816-34.871h.1a3.465,3.465,0,0,0,2.672-1.145,6.435,6.435,0,0,0,1.145-4.676,3.942,3.942,0,0,0-1.813-3.435,3.756,3.756,0,0,0-2-.573h0a4.762,4.762,0,0,0-2,.477A4.075,4.075,0,0,0,4-40.692c0,.286-.286,3.054,1.145,4.676A3.768,3.768,0,0,0,7.816-34.871ZM5.049-40.692h0c.1-2.767,2-3.054,2.863-3.054h0a2.73,2.73,0,0,1,2.863,2.958h0s.286,2.577-.954,3.913a2.166,2.166,0,0,1-1.909.763h0A2.664,2.664,0,0,1,6-36.875C4.762-38.02,5.049-40.6,5.049-40.692Z"
        transform="translate(-0.182 44.7)"/>
  <path class="b"
        d="M13.446-33.164A8.641,8.641,0,0,1,10.965-34.4a.422.422,0,0,0-.668.191.588.588,0,0,0,.1.668,11.692,11.692,0,0,0,3.34,1.527.3.3,0,0,1-.1-.191S13.542-32.782,13.446-33.164Z"
        transform="translate(-0.468 44.234)"/>
  <path class="b"
        d="M14.791-30.492l-.477-.382a3.246,3.246,0,0,1,.1.954v.1a4.646,4.646,0,0,1-.1,1.145A13.125,13.125,0,0,1,7.73-27.152a14.21,14.21,0,0,1-6.584-1.527,4.646,4.646,0,0,1-.1-1.145v-.1c0-.859.1-1.813.954-2.1a13.954,13.954,0,0,0,3.435-1.527.578.578,0,0,0,.1-.763.471.471,0,0,0-.668-.1,9.432,9.432,0,0,1-3.149,1.431h0C.1-32.4,0-30.683,0-29.92v.1H0a5.284,5.284,0,0,0,.191,1.718.205.205,0,0,0,.191.191A14.011,14.011,0,0,0,7.73-26.1a14.237,14.237,0,0,0,7.348-1.813c.1-.1.191-.1.191-.191a10.515,10.515,0,0,0,.191-1.718h0V-30.3h-.1Z"
        transform="translate(0 44.234)"/>
  <path class="b" d="M14.1-31.9h0a3.07,3.07,0,0,0,.382.668l.477.382A1.547,1.547,0,0,0,14.1-31.9Z"
        transform="translate(-0.643 44.115)"/>
  <path class="a"
        d="M25.966-35.866h0a2.9,2.9,0,0,0,2-.763c1.241-1.336.954-3.913.954-3.913h0c-.1-2.577-1.813-2.958-2.863-2.958h0c-.859,0-2.767.286-2.863,2.958h0s-.286,2.577.954,3.913A2.164,2.164,0,0,0,25.966-35.866Z"
        transform="translate(-1.059 44.645)"/>
  <path class="b"
        d="M25.816-34.871h.1a3.465,3.465,0,0,0,2.672-1.145,6.435,6.435,0,0,0,1.145-4.676,3.942,3.942,0,0,0-1.813-3.435,3.756,3.756,0,0,0-2-.573h-.1a4.762,4.762,0,0,0-2,.477A3.834,3.834,0,0,0,22-40.787c0,.286-.286,3.054,1.145,4.676A3.52,3.52,0,0,0,25.816-34.871Zm-2.767-5.821h0c.1-2.767,2-3.054,2.863-3.054h0a2.73,2.73,0,0,1,2.863,2.958h0s.286,2.577-.954,3.913a2.166,2.166,0,0,1-1.909.763h0A2.664,2.664,0,0,1,24-36.875C22.762-38.02,23.049-40.6,23.049-40.692Z"
        transform="translate(-1.005 44.7)"/>
  <path class="b"
        d="M20.1-32.392v.477h0a13.954,13.954,0,0,0,3.435-1.527.471.471,0,0,0,.1-.668.471.471,0,0,0-.668-.1A14.793,14.793,0,0,1,20.2-32.869l.1.1C20.291-32.964,20.1-32.869,20.1-32.392Z"
        transform="translate(-0.919 44.225)"/>
  <path class="b"
        d="M31.746-32.973h0A9.432,9.432,0,0,1,28.6-34.4a.422.422,0,0,0-.668.191.588.588,0,0,0,.1.668,11.13,11.13,0,0,0,3.435,1.527c.859.286.954,1.241.954,2.1v.1a4.646,4.646,0,0,1-.1,1.145,13.125,13.125,0,0,1-6.584,1.527,14.211,14.211,0,0,1-6.584-1.527,4.646,4.646,0,0,1-.1-1.145v-.1a2.642,2.642,0,0,1,.1-.859h-.1c-.191.1-.668.382-.954.573v.382h0a5.284,5.284,0,0,0,.191,1.718.205.205,0,0,0,.191.191A14.011,14.011,0,0,0,25.83-26.1a14.237,14.237,0,0,0,7.348-1.813c.1-.1.191-.1.191-.191a10.515,10.515,0,0,0,.191-1.718h0v-.1C33.464-30.683,33.368-32.4,31.746-32.973Z"
        transform="translate(-0.828 44.234)"/>
  <path class="b" d="M19.2-30.659l.477-.477c.382-.286.1-.1.191-.382.1-.1.1-.191.191-.382A1.47,1.47,0,0,0,19.2-30.659Z"
        transform="translate(-0.878 44.115)"/>
</svg>