<svg xmlns="http://www.w3.org/2000/svg" width="33.734" height="28.674" viewBox="0 0 33.734 28.674"><g transform="translate(0 -4.5)"><path class="a" fill="current"  d="M28.66,13.6a9.627,9.627,0,0,0-9.5-9.1,9.91,9.91,0,0,0-7.841,3.94c-.042-.022-.086-.037-.128-.057-.111-.054-.224-.106-.34-.151-.065-.025-.129-.048-.195-.071-.114-.04-.228-.075-.346-.107-.065-.017-.13-.035-.2-.051-.126-.029-.254-.051-.384-.07-.057-.008-.114-.02-.171-.026A5.217,5.217,0,0,0,9,7.873a5.066,5.066,0,0,0-5.06,5.06c0,.073,0,.143.009.214A7.774,7.774,0,0,0,0,19.767a7.23,7.23,0,0,0,7.222,7.222h2.9a.562.562,0,0,0,0-1.124h-2.9a6.1,6.1,0,0,1-6.1-6.1A6.684,6.684,0,0,1,4.741,14l.319-.152V13.5c0-.069,0-.14.008-.211l.005-.1-.007-.106c0-.049-.007-.1-.007-.147a3.909,3.909,0,0,1,4.451-3.9c.044.006.087.013.13.02a3.861,3.861,0,0,1,.445.1l.057.015a3.857,3.857,0,0,1,.471.181c.039.017.077.037.115.056a3.847,3.847,0,0,1,.4.224,3.933,3.933,0,0,1,1.8,3.3.562.562,0,1,0,1.124,0,5.049,5.049,0,0,0-1.8-3.863,8.9,8.9,0,0,1,6.906-3.446,8.488,8.488,0,0,1,8.348,7.808,10.706,10.706,0,0,0-2.3.07.562.562,0,0,0,.084,1.118.553.553,0,0,0,.085-.007,10.366,10.366,0,0,1,2.634,0,5.762,5.762,0,0,1,4.591,5.614,5.645,5.645,0,0,1-5.638,5.638H24.738a.562.562,0,1,0,0,1.124h2.233a6.77,6.77,0,0,0,6.763-6.763A6.919,6.919,0,0,0,28.66,13.6Z"/><path class="a" fill="current"  d="M27.458,30.666a.557.557,0,0,0-.183-.122.564.564,0,0,0-.613.122l-4.5,4.5a.562.562,0,1,0,.8.795L26.5,32.42V43.994a.562.562,0,0,0,1.124,0V32.42l3.538,3.538a.562.562,0,0,0,.795-.795Z" transform="translate(-9.631 -11.382)"/></g></svg>